<svg width="37" height="45" viewBox="0 0 37 45" fill="none" xmlns="http://www.w3.org/2000/svg">
<path d="M22.3541 1.52344C23.1748 1.4587 24.0006 1.53448 24.7955 1.75L24.8766 1.77246L24.9557 1.80273C25.5032 2.01959 25.9943 2.35557 26.3951 2.78418L26.5612 2.97266L26.6168 3.04102L26.6647 3.11426C27.1107 3.80737 27.4325 4.57256 27.6188 5.375L34.066 25.668C34.6197 27.0075 34.9336 28.4339 34.9879 29.8828L34.9908 29.9707L34.984 30.0586C34.8993 31.1173 34.5409 32.1361 33.944 33.0146L33.8932 33.0889L33.8346 33.1572C32.8823 34.2508 31.7418 35.1639 30.4694 35.8584L23.1364 40.6904C22.1126 41.4832 20.969 42.1078 19.7467 42.5361L19.6735 42.5615L19.5973 42.5801C18.6647 42.802 17.693 42.802 16.7604 42.5801L16.6803 42.5605L16.6031 42.5332C15.3872 42.099 14.2502 41.4701 13.235 40.6729L5.99182 35.8506C4.729 35.1569 3.59901 34.245 2.65686 33.1543L2.59924 33.0879L2.55042 33.0156C1.95867 32.1433 1.60074 31.1332 1.51038 30.083L1.50256 29.9932L1.50549 29.9023C1.55566 28.4621 1.86146 27.0428 2.40588 25.709L8.76135 5.38672C8.94425 4.58375 9.26412 3.81786 9.70862 3.12402L9.75452 3.05273L9.80823 2.98633C10.2358 2.46123 10.7916 2.05503 11.4215 1.80664L11.4957 1.77734L11.5739 1.75586C12.3698 1.53669 13.1975 1.45885 14.0201 1.52344H22.3541ZM21.6627 30.4629C21.0988 30.6364 20.5193 30.7569 19.9313 30.8223V30.8721H19.2448C19.0052 30.8811 18.7649 30.8814 18.524 30.8721H18.4313C18.1926 30.8721 17.9561 30.8626 17.7223 30.8506C18.0022 31.1274 18.1912 31.4436 18.3151 31.748C18.4935 32.1866 18.5583 32.6663 18.5826 33.0693C19.0486 32.596 19.5959 32.259 19.9791 32.0156L20.028 31.9844L20.0797 31.957C20.7327 31.6102 21.2777 31.0931 21.6627 30.4629ZM14.4352 30.2197C14.4459 30.2702 14.4586 30.3202 14.4713 30.3701C14.511 30.3516 14.5499 30.3313 14.5905 30.3145L14.5953 30.3125C14.6123 30.3055 14.63 30.3006 14.6471 30.2939C14.5995 30.2778 14.5513 30.2639 14.5045 30.2471C14.4813 30.2387 14.4585 30.2283 14.4352 30.2197ZM20.3698 8.08789L20.2994 8.09473H16.1686L16.0973 8.08789C15.7466 8.05482 15.3937 8.0821 15.0514 8.16309C15.0134 8.18507 14.978 8.21129 14.9459 8.24121C14.7672 8.54383 14.637 8.87311 14.566 9.21777L14.5524 9.28613L14.5319 9.35352L9.89905 24.5068C10.8035 24.1844 11.7266 23.9148 12.6637 23.7002L12.7125 23.54L12.7828 23.6738C12.8577 23.6571 12.9324 23.6401 13.0074 23.624L16.3229 12.2773L16.3248 12.2715C16.4462 11.862 16.6979 11.5034 17.0416 11.25L17.2399 11.1211C17.4443 11.005 17.6686 10.9261 17.902 10.8887L18.1364 10.8652C18.2929 10.8591 18.4496 10.8715 18.6031 10.9023L18.8317 10.9629L19.0504 11.0498C19.1924 11.1163 19.3256 11.1998 19.4479 11.2979L19.6227 11.4561L19.777 11.6338C19.9204 11.8201 20.0298 12.0309 20.0992 12.2568L20.1022 12.2646L20.1041 12.2725L23.4596 23.6289C24.507 23.854 25.5379 24.1469 26.5455 24.5059L21.9313 9.34766L21.9117 9.2832L21.8971 9.2168C21.825 8.87088 21.6947 8.54078 21.5162 8.23633C21.4857 8.20846 21.4524 8.1838 21.4166 8.16309C21.074 8.08219 20.7207 8.05473 20.3698 8.08789Z" fill="#FF5D01" stroke="#F5F5F4" stroke-width="3"/>
</svg>
