<svg width="40" height="24" viewBox="0 0 40 24" fill="none" xmlns="http://www.w3.org/2000/svg">
<path d="M11.2748 8.7175C11.2748 9.21 11.3248 9.61 11.4198 9.905C11.5248 10.1975 11.6598 10.5175 11.8448 10.865C11.9038 10.9568 11.9359 11.0634 11.9373 11.1725C11.9373 11.305 11.8573 11.44 11.6873 11.5725L10.8473 12.1325C10.7465 12.2053 10.6266 12.247 10.5023 12.2525C10.3673 12.2525 10.2348 12.1875 10.1023 12.0675C9.92263 11.8742 9.7619 11.664 9.62232 11.44C9.47359 11.1835 9.33597 10.9208 9.20982 10.6525C8.17232 11.88 6.86982 12.495 5.29982 12.495C4.18232 12.495 3.28982 12.1725 2.63982 11.5325C1.98732 10.8925 1.65482 10.0375 1.65482 8.97C1.65482 7.835 2.05482 6.915 2.86482 6.22C3.67732 5.525 4.75482 5.18 6.12482 5.18C6.57482 5.18 7.04232 5.22 7.53482 5.285C8.02732 5.3525 8.53482 5.46 9.06482 5.58V4.605C9.06482 3.59 8.85232 2.8825 8.43982 2.47C8.01482 2.055 7.29482 1.855 6.26982 1.855C5.80482 1.855 5.32732 1.91 4.83482 2.03C4.3455 2.14646 3.86511 2.29767 3.39732 2.4825C3.24629 2.55088 3.09096 2.60934 2.93232 2.6575C2.86357 2.68021 2.79211 2.69366 2.71982 2.6975C2.53232 2.6975 2.43982 2.5625 2.43982 2.2825V1.6275C2.43982 1.415 2.46482 1.2525 2.53232 1.1625C2.63306 1.03984 2.76162 0.94299 2.90732 0.880001C3.36982 0.640001 3.92982 0.44 4.58232 0.28C5.23232 0.105 5.92482 0.0275004 6.65732 0.0275004C8.23982 0.0275004 9.39732 0.387501 10.1423 1.1075C10.8748 1.8275 11.2473 2.9225 11.2473 4.3925V8.7175H11.2723H11.2748ZM5.87232 10.745C6.30982 10.745 6.76232 10.665 7.24232 10.505C7.71982 10.345 8.14732 10.05 8.50482 9.65C8.71919 9.40441 8.87403 9.11268 8.95732 8.7975C9.03732 8.475 9.09232 8.09 9.09232 7.635V7.075C8.68853 6.97708 8.27955 6.90196 7.86732 6.85C7.45279 6.79638 7.0353 6.76882 6.61732 6.7675C5.72482 6.7675 5.07232 6.9425 4.63482 7.3025C4.19482 7.6625 3.98482 8.17 3.98482 8.8375C3.98482 9.4625 4.14232 9.93 4.47482 10.2525C4.79482 10.585 5.25982 10.745 5.87232 10.745ZM16.5548 12.1875C16.3148 12.1875 16.1548 12.1475 16.0498 12.0525C15.9423 11.9725 15.8498 11.7875 15.7698 11.5325L12.6448 1.215C12.5832 1.04208 12.5421 0.862514 12.5223 0.680001C12.5223 0.467501 12.6298 0.347501 12.8423 0.347501H14.1473C14.3973 0.347501 14.5723 0.387501 14.6648 0.480001C14.7723 0.560001 14.8523 0.7475 14.9323 1L17.1673 9.8375L19.2423 1C19.3073 0.735 19.3873 0.560001 19.4923 0.480001C19.6527 0.381745 19.8396 0.335466 20.0273 0.347501H21.0898C21.3448 0.347501 21.5148 0.387501 21.6223 0.480001C21.7298 0.560001 21.8223 0.7475 21.8748 1L23.9773 9.945L26.2773 1C26.32 0.806435 26.4121 0.627259 26.5448 0.480001C26.6997 0.381827 26.8818 0.335427 27.0648 0.347501H28.3023C28.5148 0.347501 28.6348 0.455001 28.6348 0.680001C28.6348 0.747501 28.6198 0.815001 28.6098 0.895001C28.5883 1.00849 28.5565 1.11979 28.5148 1.2275L25.3073 11.545C25.2273 11.8125 25.1348 11.9875 25.0298 12.0675C24.8788 12.1641 24.7012 12.2104 24.5223 12.2H23.3798C23.1273 12.2 22.9548 12.16 22.8473 12.0675C22.7398 11.9725 22.6473 11.8 22.5948 11.5325L20.5323 2.925L18.4823 11.5225C18.4173 11.79 18.3373 11.9625 18.2323 12.055C18.1248 12.15 17.9373 12.19 17.6998 12.19H16.5548V12.1875ZM33.6498 12.5475C32.9594 12.5484 32.2713 12.4679 31.5998 12.3075C30.9348 12.1475 30.4173 11.9725 30.0698 11.7725C29.8573 11.6525 29.7123 11.52 29.6573 11.3975C29.6065 11.2799 29.5801 11.1531 29.5798 11.025V10.345C29.5798 10.065 29.6848 9.93 29.8848 9.93C29.9665 9.93018 30.0475 9.94369 30.1248 9.97C30.2048 9.9975 30.3248 10.05 30.4573 10.105C30.9073 10.305 31.4023 10.465 31.9198 10.5725C32.4523 10.6775 32.9698 10.7325 33.5023 10.7325C34.3423 10.7325 34.9923 10.585 35.4448 10.2925C35.6622 10.1609 35.8408 9.97405 35.9625 9.75095C36.0841 9.52786 36.1444 9.27651 36.1373 9.0225C36.1418 8.851 36.1123 8.68031 36.0505 8.52027C35.9887 8.36022 35.8959 8.21399 35.7773 8.09C35.5398 7.835 35.0873 7.6075 34.4348 7.395L32.5048 6.795C31.5348 6.4875 30.8148 6.0325 30.3773 5.4325C29.949 4.8781 29.7153 4.19805 29.7123 3.4975C29.7123 2.9375 29.8323 2.4425 30.0698 2.015C30.3098 1.59 30.6298 1.215 31.0298 0.92C31.4298 0.615 31.8798 0.3875 32.4123 0.2275C32.9448 0.0675002 33.5023 0 34.0873 0C34.3823 0 34.6873 0.012501 34.9798 0.052501C35.2848 0.092501 35.5648 0.147501 35.8448 0.202501C36.1098 0.267501 36.3648 0.332501 36.6023 0.415001C36.8423 0.495001 37.0273 0.575 37.1623 0.655C37.3193 0.73383 37.4561 0.847572 37.5623 0.9875C37.6479 1.11766 37.6891 1.272 37.6798 1.4275V2.055C37.6798 2.335 37.5748 2.4825 37.3748 2.4825C37.1977 2.46228 37.0262 2.40795 36.8698 2.3225C36.0659 1.96606 35.1941 1.78863 34.3148 1.8025C33.5573 1.8025 32.9573 1.9225 32.5448 2.1775C32.1323 2.4275 31.9198 2.8175 31.9198 3.365C31.9198 3.7375 32.0523 4.0575 32.3198 4.3125C32.5848 4.565 33.0773 4.8175 33.7823 5.045L35.6723 5.645C36.6298 5.9525 37.3223 6.38 37.7348 6.9275C38.1473 7.475 38.3448 8.1025 38.3448 8.7975C38.3448 9.3725 38.2273 9.89 37.9998 10.345C37.7643 10.8016 37.4335 11.2022 37.0298 11.52C36.6173 11.8525 36.1248 12.095 35.5523 12.2675C34.9523 12.455 34.3273 12.5475 33.6498 12.5475Z" fill="#252F3E"/>
<path fill-rule="evenodd" clip-rule="evenodd" d="M36.1623 19.0325C31.7873 22.275 25.4273 23.9975 19.9598 23.9975C12.2973 23.9975 5.39233 21.155 0.177326 16.43C-0.235174 16.055 0.137326 15.5475 0.627326 15.8425C6.26983 19.125 13.2273 21.115 20.4273 21.115C25.2798 21.115 30.6148 20.1 35.5248 18.0175C36.2573 17.685 36.8823 18.4975 36.1623 19.0325Z" fill="#FF9900"/>
<path fill-rule="evenodd" clip-rule="evenodd" d="M37.9848 16.95C37.4273 16.2325 34.2873 16.605 32.8648 16.7775C32.4398 16.8325 32.3723 16.4575 32.7573 16.1775C35.2573 14.415 39.3698 14.9225 39.8473 15.51C40.3273 16.11 39.7148 20.235 37.3723 22.21C37.0148 22.5175 36.6698 22.36 36.8273 21.96C37.3598 20.635 38.5448 17.66 37.9848 16.9525V16.95Z" fill="#FF9900"/>
</svg>
