<svg width="38" height="48" viewBox="0 0 38 48" fill="none" xmlns="http://www.w3.org/2000/svg">
<path d="M17.08 0H25.01V36.338C21.625 37.0327 18.1795 37.3911 14.724 37.408C5.04 37.398 0 33.072 0 24.764C0 16.764 5.346 11.564 13.632 11.564C14.7941 11.5413 15.9539 11.6759 17.08 11.964V0ZM17.08 18.284C16.2179 17.9996 15.3136 17.8643 14.406 17.884C10.406 17.884 8.08 20.33 8.08 24.616C8.08 28.79 10.294 31.094 14.356 31.094C15.2677 31.0938 16.1781 31.0269 17.08 30.894V18.294V18.284Z" fill="#44B78B"/>
<path d="M37.61 12.1179V30.3179C37.61 36.5839 37.14 39.5959 35.764 42.1939C34.3597 44.8355 32.0634 46.893 29.284 47.9999L21.928 44.5339C24.6004 43.6188 26.8386 41.7454 28.21 39.2759C29.342 37.0339 29.7 34.4359 29.7 27.6019V12.1179H37.61Z" fill="#44B78B"/>
<path d="M37.62 0.0400391H29.692V8.09604H37.62V0.0400391Z" fill="#44B78B"/>
</svg>
