<svg width="40" height="40" viewBox="0 0 40 40" fill="none" xmlns="http://www.w3.org/2000/svg">
<path d="M20 40C31.0457 40 40 31.0457 40 20C40 8.9543 31.0457 0 20 0C8.9543 0 0 8.9543 0 20C0 31.0457 8.9543 40 20 40Z" fill="#0091E2"/>
<path d="M32.3165 18.0273C32.254 17.9766 31.6875 17.5508 30.4922 17.5508C30.1758 17.5508 29.8594 17.5742 29.5469 17.6328C29.3165 16.043 28.004 15.2695 27.9454 15.2344L27.625 15.0469L27.4141 15.3516C27.1485 15.7617 26.9571 16.2109 26.8438 16.6875C26.629 17.5938 26.7579 18.4453 27.2188 19.1719C26.6641 19.4805 25.7696 19.5586 25.5899 19.5625H10.8204C10.4336 19.5625 10.1211 19.875 10.1211 20.2617C10.1055 21.5547 10.3243 22.8398 10.7657 24.0547C11.2735 25.3906 12.0313 26.3711 13.0157 26.9727C14.1172 27.6484 15.9102 28.0352 17.9454 28.0352C18.8633 28.0391 19.7813 27.9531 20.6836 27.7852C21.9375 27.5547 23.1446 27.1172 24.254 26.4883C25.168 25.957 25.9922 25.2852 26.6915 24.4922C27.8594 23.168 28.5586 21.6914 29.0782 20.3828H29.2852C30.5665 20.3828 31.3555 19.8711 31.7891 19.4414C32.0782 19.168 32.3047 18.8359 32.4493 18.4648L32.5391 18.1953L32.3165 18.0273ZM12.1875 19.1367H14.168C14.2618 19.1367 14.3399 19.0586 14.3399 18.9648V17.2031C14.3399 17.1094 14.2618 17.0312 14.168 17.0273H12.1875C12.0938 17.0273 12.0157 17.1055 12.0157 17.1992V18.9648C12.0157 19.0625 12.0938 19.1367 12.1875 19.1367ZM14.918 19.1367H16.8985C16.9922 19.1367 17.0704 19.0586 17.0704 18.9648V17.2031C17.0704 17.1094 16.9922 17.0312 16.8985 17.0273H14.918C14.8204 17.0273 14.7422 17.1055 14.7422 17.2031V18.9648C14.7422 19.0625 14.8204 19.1367 14.918 19.1367ZM17.6836 19.1406H19.6641C19.7579 19.1406 19.836 19.0625 19.836 18.9688V17.207C19.836 17.1133 19.7579 17.0352 19.6641 17.0312H17.6836C17.5899 17.0312 17.5118 17.1094 17.5118 17.2031V18.9688C17.5118 19.0625 17.5899 19.1367 17.6836 19.1406ZM20.4219 19.1406H22.4024C22.4961 19.1406 22.5743 19.0625 22.5782 18.9688V17.207C22.5782 17.1094 22.5 17.0312 22.4024 17.0312H20.4219C20.3282 17.0312 20.2501 17.1094 20.2501 17.2031V18.9688C20.2501 19.0625 20.3243 19.1406 20.4219 19.1406ZM14.9141 16.6016H16.8946C16.9883 16.6016 17.0665 16.5234 17.0665 16.4258V14.6641C17.0665 14.5703 16.9883 14.4922 16.8946 14.4922H14.9141C14.8165 14.4922 14.7422 14.5703 14.7383 14.6641V16.4258C14.7422 16.5234 14.8204 16.6016 14.9141 16.6016ZM17.6836 16.6016H19.6641C19.7579 16.6016 19.836 16.5234 19.836 16.4258V14.6641C19.836 14.5703 19.7579 14.4922 19.6641 14.4922H17.6836C17.5899 14.4922 17.5118 14.5703 17.5118 14.6641V16.4258C17.5118 16.5234 17.5899 16.6016 17.6836 16.6016ZM20.4219 16.6016H22.4024C22.5 16.6016 22.5743 16.5234 22.5782 16.4258V14.6641C22.5782 14.5664 22.5 14.4922 22.4024 14.4922H20.4219C20.3282 14.4922 20.2501 14.5703 20.2501 14.6641V16.4258C20.2501 16.5234 20.3243 16.6016 20.4219 16.6016ZM20.4219 14.0664H22.4024C22.5 14.0664 22.5782 13.9883 22.5782 13.8906V12.125C22.5782 12.0312 22.5 11.9531 22.4024 11.9531H20.4219C20.3282 11.9531 20.2501 12.0312 20.2501 12.125V13.8906C20.2501 13.9883 20.3243 14.0664 20.4219 14.0664ZM23.1797 19.1406H25.1602C25.254 19.1406 25.3321 19.0625 25.3321 18.9688V17.207C25.3321 17.1094 25.254 17.0352 25.1602 17.0312H23.1797C23.086 17.0312 23.0079 17.1094 23.0079 17.2031V18.9688C23.0079 19.0625 23.086 19.1406 23.1797 19.1406Z" fill="white"/>
</svg>
