<svg width="64" height="64" viewBox="0 0 64 64" fill="none" xmlns="http://www.w3.org/2000/svg">
<g clip-path="url(#clip0_60_732)">
<path d="M64 49.568C63.0686 49.9203 62.0404 49.9195 61.1094 49.5658C60.1785 49.2121 59.4092 48.5299 58.9467 47.648L49.7467 34.9253L48.4134 33.1466L37.7387 47.664C37.304 48.5089 36.5764 49.1666 35.692 49.5141C34.8076 49.8616 33.827 49.875 32.9334 49.552L46.688 31.0986L33.8934 14.4293C34.8134 14.0978 35.8195 14.0934 36.7423 14.4169C37.6652 14.7403 38.4484 15.372 38.96 16.2053L48.496 29.0853L58.0854 16.2586C58.5234 15.4287 59.2512 14.7887 60.1303 14.4603C61.0093 14.1319 61.9785 14.1379 62.8534 14.4773L57.888 21.0666L51.1627 29.8213C50.9759 29.9879 50.8265 30.1921 50.7242 30.4205C50.6218 30.6489 50.5689 30.8964 50.5689 31.1466C50.5689 31.3969 50.6218 31.6444 50.7242 31.8728C50.8265 32.1012 50.9759 32.3054 51.1627 32.472L63.9734 49.5706L64 49.568ZM0.00536532 30.8693L1.12537 25.336C4.2027 14.3946 16.7467 9.84265 25.376 16.616C30.4294 20.5866 31.6907 26.208 31.4427 32.544H2.97603C2.5147 43.8586 10.68 50.6906 21.12 47.2C22.8125 46.5908 24.3273 45.5713 25.529 44.2328C26.7306 42.8944 27.5815 41.2787 28.0054 39.5306C28.5574 37.7546 29.4667 37.4506 31.136 37.9626C30.8579 40.129 30.0921 42.2041 28.8962 44.0318C27.7004 45.8594 26.1057 47.3922 24.232 48.5146C21.1371 50.2075 17.5862 50.8785 14.087 50.4316C10.5878 49.9848 7.3195 48.443 4.74937 46.0266C2.20811 43.1663 0.672235 39.5533 0.376032 35.7386C0.376032 35.112 0.162699 34.5253 0.0186987 33.9626C0.0057174 32.9325 -0.000504952 31.9022 3.19901e-05 30.872L0.00536532 30.8693ZM3.0107 30.1066H28.7547C28.5947 21.904 23.4187 16.0853 16.5147 16.032C8.82936 15.9253 3.3307 21.616 2.99203 30.0693L3.0107 30.1066Z" fill="black"/>
</g>
<defs>
<clipPath id="clip0_60_732">
<rect width="64" height="64" fill="white"/>
</clipPath>
</defs>
</svg>
