<svg width="40" height="40" viewBox="0 0 40 40" fill="none" xmlns="http://www.w3.org/2000/svg">
<path d="M31.7808 0.547974H8.21921C3.9825 0.547974 0.547974 3.9825 0.547974 8.21921V31.7808C0.547974 36.0176 3.9825 39.4521 8.21921 39.4521H31.7808C36.0176 39.4521 39.4521 36.0176 39.4521 31.7808V8.21921C39.4521 3.9825 36.0176 0.547974 31.7808 0.547974Z" fill="black" stroke="black" stroke-width="2"/>
<path d="M33.0448 12.8374C31.7237 10.5739 29.9318 8.78182 27.6684 7.46086C25.4048 6.13984 22.9335 5.47949 20.2529 5.47949C17.5727 5.47949 15.1006 6.14004 12.8374 7.46086C10.5739 8.78175 8.78195 10.5739 7.46086 12.8374C6.13997 15.1009 5.47949 17.5726 5.47949 20.2525C5.47949 23.4717 6.4187 26.3665 8.29759 28.9376C10.1763 31.5089 12.6033 33.2881 15.5784 34.2755C15.9247 34.3398 16.181 34.2946 16.3477 34.141C16.5145 33.9873 16.5977 33.7947 16.5977 33.5642C16.5977 33.5257 16.5944 33.1796 16.588 32.5254C16.5814 31.8713 16.5783 31.3006 16.5783 30.8137L16.1359 30.8902C15.8538 30.9419 15.4979 30.9638 15.0683 30.9576C14.6388 30.9516 14.193 30.9066 13.7314 30.8229C13.2696 30.74 12.8401 30.5476 12.4425 30.2463C12.0451 29.9449 11.763 29.5504 11.5963 29.0634L11.4039 28.6208C11.2757 28.3261 11.0739 27.9987 10.7981 27.6399C10.5223 27.2807 10.2435 27.0372 9.96135 26.909L9.82667 26.8126C9.73693 26.7485 9.65365 26.6712 9.57664 26.5815C9.4997 26.4919 9.44209 26.4021 9.40362 26.3122C9.36509 26.2223 9.39702 26.1485 9.49977 26.0906C9.60252 26.0328 9.7882 26.0047 10.0576 26.0047L10.4422 26.0621C10.6987 26.1135 11.016 26.2671 11.3944 26.5237C11.7727 26.7801 12.0836 27.1135 12.3273 27.5237C12.6224 28.0496 12.9779 28.4504 13.3949 28.7261C13.8116 29.0019 14.2317 29.1396 14.6548 29.1396C15.0779 29.1396 15.4433 29.1075 15.7512 29.0437C16.0588 28.9795 16.3474 28.8831 16.6168 28.755C16.7322 27.8954 17.0465 27.2351 17.5593 26.7735C16.8284 26.6967 16.1713 26.581 15.5876 26.4272C15.0043 26.2732 14.4014 26.0232 13.7796 25.6766C13.1574 25.3305 12.6412 24.9007 12.231 24.388C11.8206 23.875 11.4839 23.2015 11.2212 22.3682C10.9584 21.5345 10.8269 20.5727 10.8269 19.4827C10.8269 17.9308 11.3336 16.6101 12.3467 15.5199C11.8721 14.3531 11.9169 13.0451 12.4813 11.596C12.8532 11.4805 13.4047 11.5672 14.1356 11.8556C14.8666 12.1442 15.4018 12.3914 15.7418 12.5963C16.0818 12.8012 16.3542 12.9748 16.5594 13.1157C17.7523 12.7824 18.9833 12.6157 20.2528 12.6157C21.5223 12.6157 22.7535 12.7824 23.9465 13.1157L24.6774 12.6542C25.1773 12.3463 25.7676 12.0641 26.4468 11.8076C27.1265 11.5513 27.6463 11.4807 28.0055 11.5962C28.5824 13.0454 28.6338 14.3533 28.159 15.5201C29.1721 16.6103 29.679 17.9313 29.679 19.4829C29.679 20.5729 29.547 21.5377 29.2846 22.3778C29.0219 23.218 28.6822 23.8908 28.2656 24.3976C27.8484 24.9044 27.329 25.3308 26.7071 25.6768C26.0851 26.0231 25.4821 26.2731 24.8988 26.4271C24.3152 26.5811 23.6581 26.6969 22.9272 26.7738C23.5938 27.3507 23.9271 28.2613 23.9271 29.5051V33.5636C23.9271 33.7942 24.0073 33.9867 24.1678 34.1405C24.3281 34.294 24.5812 34.3392 24.9275 34.2749C27.903 33.2876 30.33 31.5083 32.2086 28.937C34.0871 26.3659 35.0266 23.4712 35.0266 20.252C35.0259 17.5724 34.3651 15.1009 33.0448 12.8374Z" fill="white"/>
</svg>
