<svg width="24" height="24" viewBox="0 0 24 24" fill="none" xmlns="http://www.w3.org/2000/svg">
<g clip-path="url(#clip0_75_1519)">
<path d="M12 24C18.6274 24 24 18.6274 24 12C24 5.37258 18.6274 0 12 0C5.37258 0 0 5.37258 0 12C0 18.6274 5.37258 24 12 24Z" fill="#172738"/>
<mask id="mask0_75_1519" style="mask-type:luminance" maskUnits="userSpaceOnUse" x="0" y="0" width="24" height="24">
<path d="M12 24C18.6274 24 24 18.6274 24 12C24 5.37258 18.6274 0 12 0C5.37258 0 0 5.37258 0 12C0 18.6274 5.37258 24 12 24Z" fill="white"/>
</mask>
<g mask="url(#mask0_75_1519)">
<path d="M8.41396 15.702C6.09296 15.702 4.66596 13.7533 4.66663 11.6423C4.66663 9.40896 5.94363 7.62229 8.39163 7.62329C10.1916 7.62329 11.5803 8.69562 11.694 10.21H10.0993C10.02 9.50396 9.25729 8.93462 8.39163 8.93396C7.12696 8.93396 6.28429 9.91262 6.28329 11.7123C6.28329 12.954 6.90896 14.367 8.37829 14.367C9.74963 14.367 10.2236 13.6936 10.2236 12.6363H8.54696V11.374H11.701V12.645C11.704 14.4433 10.9386 15.703 8.41396 15.702Z" fill="white"/>
<path d="M13.6074 7.38001C13.5477 7.34561 13.4791 7.32979 13.4104 7.33458C13.3417 7.33937 13.276 7.36455 13.2217 7.4069C13.1674 7.44924 13.127 7.50683 13.1056 7.57229C13.0842 7.63775 13.0829 7.7081 13.1017 7.77434L13.7627 8.76001C14.3929 9.70155 14.7293 10.809 14.7293 11.942C14.7293 13.075 14.3929 14.1825 13.7627 15.124L13.1027 16.109C13.0838 16.1752 13.085 16.2455 13.1063 16.311C13.1275 16.3764 13.1678 16.4341 13.222 16.4765C13.2762 16.5189 13.3418 16.5443 13.4104 16.5492C13.4791 16.5542 13.5476 16.5386 13.6074 16.5043L19.1407 12.2887C19.1939 12.2483 19.237 12.1961 19.2667 12.1362C19.2964 12.0764 19.3118 12.0105 19.3118 11.9437C19.3118 11.8769 19.2964 11.811 19.2667 11.7511C19.237 11.6913 19.1939 11.6391 19.1407 11.5987L13.6074 7.38001Z" fill="#BFD732"/>
</g>
</g>
<defs>
<clipPath id="clip0_75_1519">
<rect width="24" height="24" fill="white"/>
</clipPath>
</defs>
</svg>
