<svg width="57" height="64" viewBox="0 0 57 64" fill="none" xmlns="http://www.w3.org/2000/svg">
<path d="M33.9733 7.336L47.1426 14.936C49.3202 12.6453 52.9414 12.5547 55.2337 14.7307C55.6286 15.104 55.9648 15.5333 56.2397 16.0027C57.8115 18.744 56.8588 22.24 54.1155 23.8107C53.6512 24.0773 53.1522 24.2773 52.6265 24.4053V39.6027C55.6846 40.3307 57.574 43.3973 56.8428 46.4533C56.7147 46.9973 56.5039 47.52 56.2237 48.0027C54.6439 50.7307 51.1508 51.6667 48.4129 50.088C47.8898 49.7867 47.4122 49.3973 47.0092 48.944L33.92 56.496C34.9127 59.4933 33.2849 62.7227 30.2881 63.712C29.709 63.9013 29.1086 64 28.5002 64C25.3486 64.0027 22.7921 61.4533 22.7895 58.304C22.7895 57.7573 22.8669 57.2107 23.0243 56.68L9.85235 49.088C7.67482 51.3653 4.05893 51.4533 1.77733 49.2747C-0.501612 47.0987 -0.587006 43.4853 1.59053 41.2053C2.34573 40.4133 3.31441 39.856 4.37649 39.5973L4.37916 24.4C1.31033 23.664 -0.579 20.5787 0.160187 17.5093C0.285609 16.9813 0.488418 16.472 0.757942 16C2.33772 13.2693 5.83352 12.336 8.56878 13.9147C9.04111 14.184 9.47342 14.5227 9.84968 14.92L23.027 7.32C22.1303 4.29867 23.8569 1.128 26.8723 0.234669C27.398 0.0773354 27.9504 2.09233e-06 28.5002 2.09233e-06C31.6517 -0.00266457 34.2082 2.544 34.2109 5.69067C34.2135 6.248 34.1308 6.80533 33.9733 7.336ZM32.599 9.67467C32.5483 9.73067 32.5003 9.77867 32.4443 9.82933L49.6857 39.6693C49.7551 39.6453 49.8352 39.6267 49.9046 39.608V24.3893C46.8491 23.6347 44.9891 20.544 45.747 17.488C45.763 17.424 45.779 17.3573 45.7977 17.296L32.599 9.67467ZM24.5534 9.832L24.3933 9.672L11.1946 17.2773C12.0672 20.304 10.322 23.4587 7.29588 24.3307C7.2265 24.352 7.15979 24.368 7.09307 24.3867V39.608L7.31723 39.6693L24.5587 9.82933L24.5534 9.832ZM30.0933 11.184C29.0525 11.4827 27.9504 11.4827 26.9124 11.184L9.67356 41.0213C10.4581 41.776 11.0132 42.7413 11.2747 43.7973H45.7283C45.9871 42.736 46.5475 41.768 47.3374 41.0133L30.0933 11.184ZM32.7245 54.456L45.835 46.888C45.795 46.7627 45.763 46.6373 45.7336 46.5093H11.2667L11.2106 46.7307L24.3906 54.336C25.426 53.2587 26.883 52.5947 28.5002 52.5947C30.1733 52.5947 31.6757 53.312 32.7245 54.456Z" fill="#E632AD"/>
</svg>
