<svg width="64" height="64" viewBox="0 0 64 64" fill="none" xmlns="http://www.w3.org/2000/svg">
<g clip-path="url(#clip0_49_602)">
<path d="M54.4 0H9.6C4.29807 0 0 4.29807 0 9.6V54.4C0 59.7019 4.29807 64 9.6 64H54.4C59.7019 64 64 59.7019 64 54.4V9.6C64 4.29807 59.7019 0 54.4 0Z" fill="#F7DF1E"/>
<path d="M40.5 46.25C41.75 48.375 43.5 49.875 46.375 49.875C48.875 49.875 50.5 48.625 50.5 46.875C50.5 44.875 48.875 44.125 46.125 42.875L44.625 42.25C40.25 40.375 37.375 38.125 37.375 33.25C37.375 28.75 40.75 25.25 46.125 25.25C50 25.25 52.75 26.625 54.625 30.125L50 33.125C49 31.25 47.875 30.5 46.125 30.5C44.375 30.5 43.25 31.625 43.25 33.125C43.25 34.875 44.375 35.625 47 36.75L48.5 37.375C53.625 39.625 56.5 41.75 56.5 46.875C56.5 52.25 52.25 55.25 46.5 55.25C40.875 55.25 37.25 52.625 35.5 49.125L40.5 46.25ZM19.25 46.75C20.25 48.375 21 49.875 23.125 49.875C25.125 49.875 26.375 49.125 26.375 46.125V25.375H32.375V45.875C32.375 52.125 28.75 54.875 23.375 54.875C18.5 54.875 15.75 52.375 14.375 49.375L19.25 46.75Z" fill="black"/>
</g>
<defs>
<clipPath id="clip0_49_602">
<rect width="64" height="64" fill="white"/>
</clipPath>
</defs>
</svg>
