<svg xmlns="http://www.w3.org/2000/svg" viewBox="0 0 24 24" width="24" height="24"><rect width="24" height="24" rx="2" fill="#F7DF1E"/><path d="M7 17.5c0 1.5.8 2.2 2 2.2 1 0 1.6-.5 1.6-1.4v-5.8h2v5.8c0 2.3-1.4 3.4-3.4 3.4-1.8 0-3-.9-3.5-2.1L7 17.5zm8.5.3c.5.8 1.2 1.2 2.2 1.2.9 0 1.5-.5 1.5-1.1 0-.8-.6-1.1-1.7-1.5l-.6-.3c-1.7-.7-2.8-1.6-2.8-3.5 0-1.7 1.3-3 3.4-3 1.5 0 2.5.5 3.3 1.8l-1.8 1.2c-.4-.7-.8-1-1.5-1-.7 0-1.1.4-1.1 1 0 .7.4 1 1.4 1.4l.6.3c2 .9 3.1 1.7 3.1 3.6 0 2.1-1.6 3.2-3.8 3.2-2.1 0-3.5-1-4.2-2.3l2-1z" fill="#000"/></svg>
