<svg width="48" height="64" viewBox="0 0 48 64" fill="none" xmlns="http://www.w3.org/2000/svg">
<path d="M24.0994 16.8812C37.2756 6.65214 30.5132 0 30.5132 0C31.5196 10.5748 19.626 13.0717 16.4378 20.3384C14.2624 25.297 17.9276 29.6386 24.095 35.1108C23.5498 33.8988 22.7088 32.7212 21.8576 31.529C18.9538 27.4626 15.929 23.2264 24.0994 16.8812Z" fill="#E76F00"/>
<path d="M26.203 37.3541C26.203 37.3541 30.167 34.1559 27.0278 30.6017C16.3862 18.5438 38.6666 13.0718 38.6666 13.0718C25.0634 19.6251 27.0942 23.5149 30.5134 28.2405C34.1742 33.3077 26.203 37.3541 26.203 37.3541Z" fill="#E76F00"/>
<path d="M37.874 46.8912C50.0846 40.6516 44.439 34.6556 40.4984 35.4634C39.5324 35.661 39.1018 35.8324 39.1018 35.8324C39.1018 35.8324 39.4604 35.28 40.1452 35.0408C47.941 32.3458 53.9364 42.9898 37.6286 47.2056C37.6286 47.2056 37.8176 47.0396 37.874 46.8912Z" fill="#5382A1"/>
<path d="M12.466 38.9937C4.82624 37.9905 16.655 35.2277 16.655 35.2277C16.655 35.2277 12.0614 34.9231 6.41184 37.6085C-0.268458 40.7863 22.9362 42.2315 34.948 39.1249C36.1968 38.2863 37.9228 37.5595 37.9228 37.5595C37.9228 37.5595 33.0074 38.4227 28.1122 38.8289C22.1224 39.3223 15.6918 39.4185 12.466 38.9937Z" fill="#5382A1"/>
<path d="M15.3728 44.9516C11.1125 44.5184 13.902 42.4878 13.902 42.4878C2.87795 46.0858 20.0356 50.166 35.4398 45.7364C33.8024 45.1688 32.7612 44.1306 32.7612 44.1306C25.2326 45.5562 20.882 45.5106 15.3728 44.9516Z" fill="#5382A1"/>
<path d="M17.229 51.3983C12.972 50.9171 15.459 49.4949 15.459 49.4949C5.45188 52.2445 21.5458 57.9251 34.2866 52.5555C32.1998 51.7575 30.7056 50.8363 30.7056 50.8363C25.0222 51.8939 22.3862 51.9769 17.229 51.3983Z" fill="#5382A1"/>
<path d="M43.8774 54.6775C43.8774 54.6775 45.7178 56.1687 41.8504 57.3223C34.4962 59.5131 11.2419 60.1748 4.78188 57.4098C2.45968 56.4164 6.81446 55.0378 8.1843 54.7484C9.61292 54.4438 10.4293 54.5005 10.4293 54.5005C7.8468 52.7115 -6.26302 58.0133 3.26222 59.5317C29.239 63.6743 50.6154 57.6661 43.8774 54.6775Z" fill="#5382A1"/>
<path d="M48 57.9358C47.5738 63.3894 29.5754 64.5366 17.8548 63.7988C10.2086 63.3166 8.67623 62.1116 8.65381 62.094C15.9718 63.2804 28.3098 63.4964 38.3136 61.645C47.1806 60.0032 48 57.9358 48 57.9358Z" fill="#5382A1"/>
</svg>
