<svg width="51" height="56" viewBox="0 0 51 56" fill="none" xmlns="http://www.w3.org/2000/svg">
<path d="M47.5229 27.572C47.5229 26.1897 46.9738 24.864 45.9964 23.8865C45.0189 22.9091 43.6932 22.36 42.3109 22.36C42.1279 22.3598 41.945 22.3691 41.7629 22.388L48.9229 1.27197H18.4969L25.6469 22.37C25.5429 22.37 25.4369 22.36 25.3309 22.36C24.0863 22.3585 22.8822 22.8026 21.9365 23.6117C20.9908 24.4209 20.3659 25.5418 20.1748 26.7716C19.9836 28.0015 20.2389 29.2591 20.8945 30.3171C21.55 31.3751 22.5626 32.1636 23.7489 32.54C22.6402 34.4489 21.2598 36.1864 19.6509 37.698C17.5567 39.7 15.0685 41.2441 12.3449 42.232C10.8189 41.5088 9.62547 40.2318 9.00697 38.6605C8.38846 37.0891 8.39131 35.3413 9.01492 33.772C9.16892 33.412 9.32492 33.048 9.47292 32.684C10.635 32.4103 11.668 31.7461 12.3992 30.8023C13.1305 29.8586 13.5157 28.6925 13.4905 27.4988C13.4653 26.3052 13.0313 25.1564 12.2609 24.2443C11.4905 23.3322 10.4304 22.7122 9.25779 22.4878C8.08518 22.2633 6.87107 22.4481 5.81833 23.0113C4.76559 23.5744 3.938 24.4818 3.47385 25.5818C3.0097 26.6817 2.9371 27.9077 3.26819 29.0548C3.59928 30.2018 4.314 31.2005 5.29292 31.884C3.62924 34.9006 2.35954 38.1182 1.51492 41.458C0.80692 45.728 1.51492 50.258 5.20492 52.82C13.8049 58.782 23.1429 49.124 32.9869 46.698C36.5549 45.818 40.4709 45.96 43.6129 44.14C44.7481 43.4935 45.727 42.605 46.4801 41.5376C47.2333 40.4702 47.7423 39.2502 47.9709 37.964C48.18 36.7384 48.1406 35.4833 47.8551 34.2732C47.5696 33.0632 47.0438 31.9228 46.3089 30.92C47.093 29.983 47.5221 28.7998 47.5209 27.578L47.5229 27.572ZM30.5449 27.6V27.582C30.5464 26.685 30.3159 25.803 29.8757 25.0215C29.4355 24.24 28.8007 23.5856 28.0329 23.122L33.7209 11.6L39.4209 23.228C38.7058 23.7032 38.1195 24.348 37.7144 25.105C37.3092 25.8619 37.0978 26.7074 37.0989 27.566C37.0989 27.604 37.0989 27.642 37.0989 27.68L30.5449 27.6Z" fill="#C63D14"/>
<path d="M48.7969 27.572C48.7949 26.0608 48.2659 24.5975 47.301 23.4344C46.3361 22.2713 44.9958 21.4811 43.5109 21.2L50.6989 0H16.7229L23.9229 21.242C22.666 21.523 21.5212 22.172 20.6347 23.1063C19.7482 24.0407 19.1601 25.2179 18.9455 26.4879C18.7309 27.7579 18.8995 29.063 19.4298 30.2367C19.9601 31.4105 20.8281 32.3996 21.9229 33.078C21.0185 34.4217 19.9666 35.6601 18.7869 36.77C16.9609 38.5171 14.815 39.8956 12.4669 40.83C11.365 40.1903 10.5297 39.1759 10.1133 37.9717C9.69699 36.7674 9.72737 35.4537 10.1989 34.27L10.2789 34.084L10.4269 33.734C11.7599 33.2719 12.906 32.3879 13.6916 31.2161C14.4772 30.0443 14.8596 28.6484 14.7809 27.2398C14.7021 25.8312 14.1665 24.4866 13.2551 23.4096C12.3438 22.3327 11.1063 21.5821 9.73013 21.2714C8.35395 20.9607 6.91402 21.1069 5.62838 21.6879C4.34275 22.2689 3.28144 23.253 2.60518 24.4911C1.92892 25.7293 1.67454 27.1541 1.88055 28.5498C2.08657 29.9455 2.74177 31.236 3.74693 32.226C3.53093 32.688 3.30293 33.156 3.06893 33.638C1.77219 36.0222 0.828989 38.5824 0.268925 41.238C-0.661075 46.838 0.838925 51.324 4.49093 53.854C6.45141 55.2559 8.80276 56.0066 11.2129 56C15.4769 56 19.7909 53.858 24.0129 51.762C26.9628 50.1577 30.075 48.8718 33.2969 47.926C34.4509 47.642 35.6389 47.47 36.8969 47.288C39.4598 47.0832 41.959 46.3851 44.2569 45.232C45.5528 44.4918 46.6701 43.4756 47.5297 42.2556C48.3892 41.0356 48.97 39.6414 49.2309 38.172C49.6559 35.6755 49.1651 33.1095 47.8489 30.946C48.4715 29.9301 48.8004 28.7615 48.7989 27.57L48.7969 27.572ZM46.2509 27.572C46.2509 28.3513 46.0198 29.113 45.5869 29.7609C45.154 30.4089 44.5386 30.9139 43.8187 31.2121C43.0988 31.5103 42.3066 31.5883 41.5423 31.4363C40.778 31.2843 40.0759 30.909 39.5249 30.358C38.9739 29.807 38.5987 29.1049 38.4466 28.3407C38.2946 27.5764 38.3726 26.7842 38.6708 26.0642C38.9691 25.3443 39.474 24.7289 40.122 24.296C40.7699 23.8631 41.5317 23.632 42.3109 23.632C43.3556 23.6331 44.3571 24.0485 45.0958 24.7872C45.8344 25.5258 46.2499 26.5274 46.2509 27.572ZM47.1449 2.546L40.7969 21.266C40.5251 21.3318 40.2578 21.4153 39.9969 21.516L33.7269 8.716L27.4369 21.44C27.1631 21.3451 26.8831 21.2689 26.5989 21.212L20.2729 2.546H47.1449ZM25.3309 23.632C26.1102 23.632 26.8719 23.8631 27.5199 24.296C28.1678 24.7289 28.6728 25.3443 28.971 26.0642C29.2692 26.7842 29.3472 27.5764 29.1952 28.3407C29.0432 29.1049 28.6679 29.807 28.1169 30.358C27.5659 30.909 26.8639 31.2843 26.0996 31.4363C25.3353 31.5883 24.5431 31.5103 23.8232 31.2121C23.1032 30.9139 22.4879 30.4089 22.0549 29.7609C21.622 29.113 21.3909 28.3513 21.3909 27.572C21.392 26.5274 21.8074 25.5258 22.5461 24.7872C23.2848 24.0485 24.2863 23.6331 25.3309 23.632ZM8.28693 23.67C9.06652 23.6704 9.82848 23.9021 10.4764 24.3357C11.1242 24.7693 11.6289 25.3854 11.9265 26.1059C12.2241 26.8265 12.3013 27.6191 12.1482 28.3836C11.9952 29.148 11.6188 29.8498 11.0667 30.4002C10.5146 30.9507 9.81158 31.3249 9.0467 31.4757C8.28181 31.6264 7.4894 31.5468 6.76975 31.247C6.0501 30.9472 5.43557 30.4407 5.00393 29.7915C4.57229 29.1423 4.34295 28.3796 4.34493 27.6C4.34598 26.5554 4.76143 25.5538 5.50009 24.8152C6.23876 24.0765 7.2403 23.6611 8.28492 23.66L8.28693 23.67ZM46.7209 37.738C46.5232 38.8405 46.0856 39.886 45.4389 40.8005C44.7923 41.715 43.9524 42.4761 42.9789 43.03C40.9591 44.0107 38.772 44.6004 36.5329 44.768C35.2689 44.95 33.9629 45.138 32.6849 45.454C29.2828 46.4391 25.9971 47.789 22.8849 49.48C16.5569 52.622 11.0849 55.336 5.94093 51.766C2.16693 49.15 2.34093 44.31 2.78093 41.658C3.29872 39.2446 4.1623 36.9186 5.34493 34.752C5.52893 34.374 5.70893 34.002 5.88493 33.634C6.42215 33.8488 6.98591 33.99 7.56093 34.054C7.05189 35.8519 7.19413 37.7719 7.96254 39.4752C8.73094 41.1785 10.0762 42.5557 11.7609 43.364L12.2509 43.616L12.7689 43.432C15.6583 42.3891 18.298 40.7542 20.5189 38.632C21.9859 37.252 23.2746 35.6939 24.3549 33.994C25.7372 34.2042 27.1503 33.9619 28.3836 33.3032C29.6168 32.6445 30.604 31.6047 31.1979 30.3389C31.7917 29.0731 31.9604 27.6493 31.6787 26.2798C31.3971 24.9103 30.6801 23.6686 29.6349 22.74L33.7109 14.498L37.8289 22.898C36.6573 24.0272 35.9533 25.5558 35.857 27.1802C35.7606 28.8046 36.2789 30.4057 37.3089 31.6655C38.3389 32.9253 39.8051 33.7514 41.4163 33.9797C43.0274 34.2081 44.6654 33.8219 46.0049 32.898C46.7476 34.397 46.9962 36.0929 46.7149 37.742L46.7209 37.738Z" fill="white"/>
</svg>
