<svg width="33" height="40" viewBox="0 0 33 40" fill="none" xmlns="http://www.w3.org/2000/svg">
<path d="M31.7634 31.4771C31.4777 31.1571 31.3463 30.5657 31.2005 29.9343C31.0577 29.3057 30.8948 28.6286 30.3777 28.1914V28.1886C30.189 28.0251 29.9735 27.8956 29.7405 27.8057C30.4605 25.6771 30.1777 23.5571 29.4548 21.6429C28.5634 19.2914 27.012 17.2429 25.8263 15.8429C24.5005 14.1686 23.2034 12.58 23.2263 10.2343C23.2663 6.65143 23.6205 0.00857143 17.3177 0C17.0605 0 16.7948 0.0114285 16.5177 0.0342856C9.47197 0.6 11.3405 8.04286 11.2348 10.5343C11.1063 12.3571 10.7377 13.7914 9.4834 15.5743C8.01197 17.3257 5.94055 20.1571 4.95769 23.1086C4.49483 24.5 4.27197 25.92 4.47769 27.2629C4.41197 27.32 4.35197 27.38 4.29483 27.4429C3.8634 27.9029 3.5434 28.4629 3.18626 28.84C2.85483 29.1714 2.38055 29.2971 1.86055 29.4829C1.33769 29.6714 0.76626 29.9457 0.420546 30.6114V30.6143C0.267168 30.9136 0.191515 31.2467 0.200546 31.5829C0.200546 31.8914 0.24626 32.2029 0.291975 32.5029C0.389117 33.1314 0.48626 33.7229 0.357689 34.1229C-0.0537397 35.2514 -0.108025 36.0286 0.183403 36.5943C0.474832 37.1629 1.06912 37.4114 1.74626 37.5514C3.09769 37.8371 4.92912 37.7657 6.37198 38.5286C7.91483 39.3371 9.4834 39.6229 10.732 39.34C11.1685 39.2543 11.5787 39.0668 11.9292 38.7927C12.2797 38.5187 12.5606 38.1659 12.7491 37.7629C13.7263 37.7571 14.7977 37.3457 16.5148 37.2486C17.6805 37.1571 19.1377 37.6629 20.8091 37.5714C20.8525 37.7529 20.9177 37.9285 21.0034 38.0943L21.0063 38.0971C21.6548 39.3971 22.8634 39.9886 24.1491 39.8886C25.4348 39.7857 26.8005 39.0286 27.9063 37.7114C28.9634 36.4314 30.712 35.9029 31.872 35.2029C32.452 34.8514 32.9234 34.4143 32.9577 33.7771C32.9948 33.1429 32.6205 32.4314 31.7634 31.4771Z" fill="#202020"/>
<path d="M32.4291 33.7486C32.4091 34.14 32.1234 34.4343 31.6006 34.7486C30.5491 35.3829 28.6891 35.9314 27.5034 37.3714C26.4691 38.6 25.212 39.2714 24.1034 39.36C22.9977 39.4457 22.0434 38.9886 21.4777 37.8571V37.8514C21.1263 37.1857 21.272 36.1371 21.5663 35.0314C21.8606 33.9257 22.2834 32.7886 22.3406 31.8657C22.3977 30.68 22.4663 29.6457 22.6663 28.8486C22.8663 28.0486 23.1777 27.5114 23.732 27.2057C23.7575 27.1919 23.7832 27.1786 23.8091 27.1657C23.872 28.1914 24.3806 29.2371 25.2777 29.4629C26.2577 29.72 27.672 28.88 28.2691 28.1914L28.6177 28.18C29.1434 28.1657 29.5806 28.1971 30.032 28.5886C30.3777 28.88 30.5434 29.4371 30.6863 30.0543C30.8291 30.6743 30.9434 31.3486 31.3691 31.8286C32.1891 32.7429 32.4548 33.3543 32.4291 33.7486ZM12.4891 36.6486V36.6571C12.392 37.9 11.6891 38.5771 10.6148 38.8229C9.5377 39.0686 8.0777 38.8229 6.62056 38.0629C5.00627 37.2057 3.08627 37.2914 1.8577 37.0343C1.24056 36.9057 0.837701 36.7114 0.654844 36.3543C0.471986 35.9943 0.466272 35.3686 0.8577 34.2971V34.2943L0.860558 34.2886C1.05484 33.6914 0.911986 33.0371 0.8177 32.4229C0.723415 31.8114 0.6777 31.2514 0.886272 30.8629L0.889129 30.86C1.1577 30.3429 1.55199 30.1571 2.04056 29.9829C2.52627 29.8057 3.10627 29.6686 3.56341 29.2114L3.56627 29.2086C3.98913 28.76 4.31199 28.2 4.68341 27.8029C4.9977 27.4686 5.31199 27.2457 5.78341 27.2429H5.7977C5.88673 27.2437 5.97556 27.2513 6.06341 27.2657C6.69199 27.36 7.2377 27.8 7.76627 28.5143L9.28913 31.2886V31.2914C9.69484 32.1371 10.5491 33.0686 11.2748 34.0171C12.0006 34.9686 12.5606 35.92 12.4891 36.6486Z" fill="#F8BF11"/>
<path d="M20.0834 10.7771C19.9605 10.5371 19.712 10.3086 19.2834 10.1343C18.3977 9.75428 18.0148 9.72857 17.5205 9.40857C16.7205 8.89143 16.0548 8.71143 15.5034 8.71143C15.2387 8.71271 14.976 8.75809 14.7262 8.84571C14.052 9.07428 13.6062 9.56 13.3262 9.82285C13.2691 9.87714 13.2005 9.92285 13.0291 10.0514C12.8577 10.1743 12.6005 10.3657 12.2291 10.6457C11.8948 10.8914 11.7891 11.2171 11.9034 11.5943C12.0177 11.9714 12.3805 12.4086 13.0462 12.7857C13.4605 13.0286 13.7462 13.3571 14.072 13.6171C14.2355 13.7531 14.4173 13.8656 14.612 13.9514C14.8177 14.04 15.0577 14.1 15.3548 14.1171C16.0634 14.16 16.5834 13.9457 17.0405 13.6857C17.4977 13.4229 17.8862 13.1029 18.332 12.9571C19.2462 12.6714 19.9005 12.0971 20.1062 11.5486C20.1582 11.4259 20.183 11.2935 20.179 11.1604C20.1751 11.0272 20.1425 10.8965 20.0834 10.7771Z" fill="#D6A312"/>
<path d="M17.7634 12.1257C17.0349 12.5057 16.1863 12.9657 15.2806 12.9657C14.3777 12.9657 13.6634 12.5485 13.152 12.14C12.8949 11.94 12.6863 11.7343 12.5291 11.5885C12.2549 11.3743 12.2891 11.0714 12.4006 11.08C12.5891 11.1028 12.6177 11.3514 12.7349 11.4628C12.8949 11.6114 13.0949 11.8057 13.3377 11.9971C13.8234 12.3828 14.472 12.7571 15.2806 12.7571C16.092 12.7571 17.0349 12.2828 17.612 11.9571C17.9406 11.7743 18.3549 11.4457 18.6949 11.1971C18.952 11.0057 18.9434 10.7771 19.1577 10.8028C19.372 10.8285 19.2149 11.0571 18.9149 11.3171C18.6149 11.58 18.1434 11.9285 17.7634 12.1257Z" fill="#202020"/>
<path d="M28.9034 27.6514C28.8044 27.6484 28.7053 27.6484 28.6063 27.6514H28.5777C28.8291 26.86 28.2748 26.28 26.8034 25.6143C25.2777 24.9429 24.0606 25.0086 23.8548 26.3714C23.8406 26.4429 23.8291 26.5143 23.8234 26.5886C23.7051 26.6305 23.5904 26.6821 23.4806 26.7429C22.7606 27.1343 22.3691 27.8457 22.152 28.72C21.9348 29.5914 21.872 30.6457 21.812 31.8343C21.7748 32.4286 21.5291 33.2343 21.2806 34.0914C18.7806 35.8743 15.3091 36.6457 12.3606 34.6343C12.1606 34.32 11.932 34.0057 11.6948 33.6971C11.5443 33.5005 11.3919 33.3052 11.2377 33.1114C11.5002 33.1185 11.7611 33.0698 12.0034 32.9686C12.1245 32.9178 12.234 32.843 12.3253 32.7487C12.4166 32.6544 12.4879 32.5426 12.5348 32.42C12.7148 31.9343 12.5348 31.2543 11.9577 30.4771C11.3834 29.6971 10.4091 28.82 8.97771 27.94C7.92628 27.2829 7.33771 26.4829 7.06342 25.6143C6.78628 24.7429 6.82342 23.8 7.03485 22.8714C7.44342 21.0857 8.49199 19.3486 9.15771 18.26C9.33771 18.1286 9.22342 18.5057 8.48342 19.88C7.82056 21.1371 6.57771 24.0371 8.27771 26.3029C8.32342 24.6914 8.70628 23.0457 9.35485 21.5114C10.2948 19.3771 12.2634 15.68 12.4177 12.7314C12.5006 12.7886 12.7748 12.9771 12.9006 13.0457C13.2606 13.26 13.532 13.5714 13.8834 13.8543C14.3417 14.2411 14.9269 14.4446 15.5263 14.4257C16.212 14.4257 16.7463 14.2 17.1891 13.9457C17.6748 13.6714 18.0577 13.3629 18.4263 13.2457C19.1977 13.0029 19.8148 12.5743 20.1634 12.0743C20.7634 14.4457 22.1634 17.8657 23.0606 19.5343C23.5377 20.42 24.4891 22.3028 24.8977 24.5686C25.1577 24.5628 25.4434 24.5971 25.752 24.6771C26.8234 21.8971 24.8406 18.9 23.9348 18.0657C23.5691 17.7114 23.5491 17.5514 23.7348 17.56C24.7148 18.4286 26.0063 20.18 26.4777 22.1543C26.692 23.0543 26.7348 24 26.5063 24.9343C26.6206 24.9829 26.7348 25.0314 26.8491 25.0886C28.572 25.9257 29.2091 26.6543 28.9034 27.6514Z" fill="white"/>
<path d="M16.6262 20.1314C15.0377 20.1371 13.4862 20.8486 12.1748 22.1771C10.8605 23.5028 9.84909 25.3828 9.26624 27.5714L9.44052 27.68V27.6914C10.7834 28.5428 11.7405 29.4 12.3319 30.2C12.9577 31.0457 13.2348 31.8686 12.9691 32.5828C12.8288 32.9437 12.5515 33.2343 12.1977 33.3914L12.0805 33.4343C12.2919 33.7114 12.4977 33.9971 12.6891 34.2914C15.3862 36.0857 18.5234 35.4228 20.8805 33.8C21.1091 33.0057 21.3177 32.2685 21.3462 31.8057C21.4062 30.62 21.4662 29.5428 21.7005 28.6057C21.9348 27.6628 22.3919 26.8057 23.2548 26.3343C23.3034 26.3057 23.3519 26.2914 23.4005 26.2686C23.4157 26.1778 23.4367 26.0881 23.4634 26C22.7719 24.2228 21.7748 22.7428 20.5777 21.7143C19.3777 20.6857 18.0148 20.14 16.6291 20.1314H16.6262ZM23.3977 26.2886L23.3919 26.3028V26.2971L23.3948 26.2857L23.3977 26.2886Z" fill="#E6E6E6"/>
<path d="M20.1634 8.04859C20.1758 8.72473 19.9593 9.38521 19.5491 9.92288C19.344 9.83123 19.1363 9.74549 18.9263 9.66573L18.5634 9.53716C18.6463 9.43716 18.8063 9.32288 18.8691 9.17431C18.9596 8.95381 19.0081 8.71833 19.012 8.48002L19.0148 8.45145C19.0219 8.22252 18.9881 7.99417 18.9148 7.77716C18.8573 7.57898 18.7513 7.39828 18.6063 7.25145C18.5488 7.19043 18.4798 7.14135 18.4033 7.10703C18.3269 7.07271 18.2444 7.05382 18.1606 7.05145H18.1406C17.9806 7.05367 17.827 7.11469 17.7091 7.22288C17.5532 7.35795 17.4333 7.52981 17.3606 7.72288C17.2705 7.94351 17.2221 8.1789 17.2177 8.41716V8.44573C17.2132 8.57959 17.2218 8.71356 17.2434 8.84573C16.9193 8.69613 16.5803 8.58121 16.232 8.50288C16.2154 8.37684 16.2059 8.24998 16.2034 8.12288V8.08573C16.1913 7.64663 16.2772 7.21035 16.4548 6.80859C16.6061 6.43868 16.8526 6.11537 17.1691 5.87145C17.4491 5.64533 17.7978 5.52137 18.1577 5.52002H18.1748C18.532 5.52002 18.8377 5.62288 19.152 5.85145C19.4756 6.08833 19.7293 6.40814 19.8863 6.77716C20.0663 7.17145 20.1548 7.55716 20.1634 8.01431L20.1663 8.04859H20.1634ZM14.7634 8.51716C14.4837 8.5972 14.2171 8.71751 13.972 8.87431C13.9912 8.7322 13.9931 8.5883 13.9777 8.44573V8.42288C13.9602 8.2341 13.914 8.0491 13.8406 7.87431C13.7818 7.72049 13.6878 7.58254 13.5663 7.47145C13.5216 7.42762 13.4683 7.39356 13.4098 7.37143C13.3513 7.3493 13.2888 7.33957 13.2263 7.34288C13.1063 7.35431 13.0063 7.41145 12.912 7.52859C12.8116 7.65962 12.7431 7.81222 12.712 7.9743C12.6674 8.16617 12.6549 8.36407 12.6748 8.56002V8.58288C12.6913 8.77276 12.7376 8.95885 12.812 9.1343C12.8804 9.30997 12.9949 9.46394 13.1434 9.58002L12.852 9.80859L12.6291 9.96859C12.4312 9.77392 12.2756 9.54047 12.172 9.28288C12.0206 8.94002 11.9377 8.59716 11.9148 8.19431V8.19145C11.8887 7.81527 11.9323 7.4375 12.0434 7.07716C12.1287 6.76292 12.293 6.47572 12.5206 6.24288C12.616 6.13745 12.7324 6.05304 12.8623 5.995C12.9921 5.93696 13.1326 5.90656 13.2748 5.90573C13.5148 5.90573 13.7263 5.98573 13.9463 6.16288C14.1976 6.36931 14.3931 6.63554 14.5148 6.93716C14.6663 7.28002 14.7434 7.62288 14.7691 8.02859C14.7777 8.20002 14.7777 8.36002 14.7634 8.51716Z" fill="white"/>
<path d="M15.9577 9.48283C15.9863 9.57998 16.1434 9.56569 16.2349 9.6114C16.312 9.6514 16.3777 9.73998 16.4634 9.74283C16.5491 9.74569 16.6806 9.71426 16.692 9.62855C16.7063 9.51998 16.5434 9.44855 16.4406 9.40855C16.3063 9.35426 16.1349 9.32855 16.0091 9.39998C15.9806 9.41426 15.9491 9.44855 15.9577 9.48283ZM15.0377 9.48283C15.0091 9.57998 14.852 9.56569 14.7634 9.6114C14.6834 9.6514 14.6206 9.73998 14.532 9.74283C14.4463 9.74569 14.3149 9.71426 14.3034 9.62855C14.2891 9.51998 14.452 9.44855 14.5549 9.40855C14.6891 9.35426 14.8634 9.32855 14.9891 9.39998C15.0177 9.41426 15.0463 9.44855 15.0377 9.48283Z" fill="#202020"/>
</svg>
