<svg width="56" height="56" viewBox="0 0 56 56" fill="none" xmlns="http://www.w3.org/2000/svg">
<path fill-rule="evenodd" clip-rule="evenodd" d="M32.94 0C32.5556 0.00537034 32.1747 0.0729101 31.812 0.2C35.042 2.324 31.232 5.4 33.012 8C32.8893 7.12548 33.0284 6.23422 33.4118 5.43868C33.7951 4.64315 34.4056 3.97898 35.166 3.53C35.736 3.056 36.102 2.886 35.98 2.102C35.782 0.818 34.07 0 32.94 0ZM37.54 0.828C37.094 3.074 36.54 3.156 34.894 4.602C34.252 5.10813 33.7989 5.81553 33.6077 6.61038C33.4166 7.40523 33.4984 8.24128 33.84 8.984C27.04 6.344 18.324 4.748 11.934 9.316C9.63598 10.958 8.23398 13.316 5.39998 14.278C3.56798 14.906 1.76798 14.72 0.619978 16.536C0.200124 17.0604 -0.0192041 17.7172 0.00132032 18.3886C0.0218448 19.0601 0.280879 19.7022 0.731978 20.2C1.07398 20.55 1.73198 20.774 2.00398 21.13C2.16198 21.33 2.15798 21.53 2.30798 21.796C2.57307 22.4159 2.95618 22.9783 3.43598 23.452C3.72998 23.694 4.73998 23.93 4.91198 24.188C5.12798 24.51 4.56798 25.788 5.03798 25.988C5.35398 26.134 6.27998 24.5 6.36998 24.356C6.18598 25.642 5.94398 27.924 7.38998 26.024C8.07598 25.122 8.11798 24.824 9.27198 24.624C10.0105 24.4957 10.7569 24.4182 11.506 24.392C15.7854 24.2423 19.9592 25.7398 23.1674 28.5758C26.3755 31.4119 28.3737 35.3705 28.75 39.636C28.534 38.636 27.228 37.036 26.012 37.416C25.494 37.576 25.302 38.47 24.962 38.988C24.5321 39.6448 24.0024 40.2305 23.392 40.724C23.4953 39.7544 23.4467 38.7746 23.248 37.82C22.884 39.316 22.154 41.798 20.316 41.396C19.7037 41.3025 19.13 41.0388 18.6604 40.635C18.1907 40.2311 17.8441 39.7034 17.66 39.112C17.422 37.592 19.028 35.81 16.446 35.684C11.266 35.43 12.464 43.048 15.522 45.034C14.8192 45.1118 14.1336 45.3029 13.492 45.6C15.4345 46.7281 17.6233 47.3645 19.8678 47.4537C22.1124 47.5429 24.3448 47.0823 26.3707 46.1119C28.3967 45.1415 30.1548 43.6908 31.4921 41.8859C32.8294 40.081 33.7055 37.9767 34.044 35.756C34.4891 37.7897 34.4788 39.8967 34.014 41.926C33.7655 43.0044 33.3937 44.0506 32.906 45.044C32.2449 46.3858 31.3663 47.609 30.306 48.664C29.678 49.286 28.526 49.912 28.13 50.546C30.5539 50.2246 32.9225 49.5733 35.17 48.61C32.8435 51.7967 29.7451 54.3396 26.166 56C30.0035 55.7285 33.7132 54.5061 36.9603 52.4429C40.2075 50.3798 42.89 47.5408 44.766 44.182C44.1681 47.5412 42.8402 50.7281 40.876 53.518C43.5178 51.7494 45.7655 49.4536 47.4778 46.7749C49.19 44.0961 50.33 41.0923 50.826 37.952C51.3185 40.2508 51.4594 42.611 51.244 44.952C53.4142 41.9365 54.8802 38.4725 55.5341 34.8153C56.1879 31.158 56.0129 27.4007 55.022 23.82C54.264 21.0365 53.1274 18.3702 51.644 15.896C51.0712 14.9319 50.4441 14.0011 49.766 13.108C49.5 12.762 48.078 11.496 48.078 11.108C48.066 11.1467 48.056 11.1467 48.048 11.108C48.048 17.604 41.048 21.774 35.186 20.034C37.415 19.8611 39.5217 18.9463 41.1698 17.4356C42.8179 15.9249 43.9122 13.9056 44.278 11.7C44.6019 9.3861 44.1053 7.03184 42.8745 5.04587C41.6437 3.05989 39.7563 1.56759 37.54 0.828Z" fill="#EA2845"/>
</svg>
