<svg width="35" height="39" viewBox="0 0 35 39" fill="none" xmlns="http://www.w3.org/2000/svg">
<path d="M16.9536 0H17.0439C17.5066 0.220365 17.9572 0.465155 18.3939 0.733333C23.4208 3.62407 28.4476 6.51574 33.4745 9.40833C33.669 9.51214 33.8278 9.67198 33.9303 9.86713C34.0328 10.0623 34.0743 10.2837 34.0495 10.5028C34.0384 16.5986 34.0495 22.6931 34.0425 28.7861C33.9771 29.0769 33.7994 29.33 33.5481 29.4903C28.2027 32.5681 22.8569 35.644 17.5106 38.7181C17.381 38.8168 17.2249 38.8745 17.0622 38.8836C16.8996 38.8928 16.7379 38.853 16.5981 38.7694C11.2462 35.7009 5.89948 32.6269 0.557812 29.5472C0.384211 29.4651 0.238804 29.3335 0.139934 29.1689C0.0410631 29.0042 -0.00684338 28.814 0.00225659 28.6222C0.00225659 22.5278 0.00225659 16.4338 0.00225659 10.3403C-0.0108423 10.1493 0.0333014 9.95876 0.129046 9.793C0.22479 9.62724 0.367785 9.4938 0.539757 9.40972C5.56013 6.52268 10.5805 3.6338 15.6009 0.743056C16.0481 0.4875 16.487 0.216667 16.9536 0Z" fill="#019639"/>
<path d="M6.98005 11.8583C6.98005 16.8852 6.98005 21.9125 6.98005 26.9403C6.97363 27.2187 7.02278 27.4956 7.1246 27.7548C7.22643 28.014 7.3789 28.2504 7.5731 28.45C7.94535 28.8177 8.43243 29.0467 8.95309 29.0988C9.47374 29.1508 9.99652 29.0228 10.4342 28.7361C10.7272 28.537 10.9671 28.2693 11.1329 27.9563C11.2987 27.6433 11.3855 27.2945 11.3856 26.9403C11.3856 23.3014 11.3787 19.6625 11.3856 16.0236C14.7032 19.9958 18.0277 23.9625 21.3592 27.9236C21.8221 28.3925 22.3952 28.7377 23.0262 28.9274C23.6571 29.1172 24.3256 29.1455 24.9703 29.0097C25.4256 28.92 25.84 28.6866 26.1528 28.3439C26.4656 28.0011 26.6601 27.5671 26.7078 27.1055C26.7152 21.975 26.7152 16.8449 26.7078 11.7153C26.66 11.1677 26.4087 10.658 26.0035 10.2866C25.5983 9.91523 25.0686 9.70923 24.5189 9.70923C23.9693 9.70923 23.4396 9.91523 23.0344 10.2866C22.6292 10.658 22.3779 11.1677 22.33 11.7153C22.33 15.4125 22.3078 19.1055 22.33 22.8014C19.0717 18.9597 15.8537 15.0847 12.6078 11.2292C12.1799 10.6804 11.6134 10.2558 10.9667 9.99895C10.32 9.74212 9.61644 9.66241 8.92866 9.76805C8.40764 9.82604 7.92463 10.0688 7.56715 10.4522C7.20968 10.8357 7.0014 11.3345 6.98005 11.8583Z" fill="white"/>
</svg>
