<svg width="40" height="40" viewBox="0 0 40 40" fill="none" xmlns="http://www.w3.org/2000/svg">
<path fill-rule="evenodd" clip-rule="evenodd" d="M6.288 37.6237L1.70219 31.9108C0.59884 30.5364 0 28.8461 0 27.1065V6.41998C0 3.81419 2.08479 1.65196 4.77428 1.46833L26.0428 0.0162428C27.588 -0.0892477 29.1237 0.321456 30.3931 1.1796L37.8656 6.23188C39.2033 7.13625 40 8.61465 40 10.1923V33.7109C40 36.261 37.9501 38.3724 35.3168 38.5345L11.7111 39.9876C9.60977 40.1169 7.57865 39.2316 6.288 37.6237Z" fill="white"/>
<path d="M13.6641 16.7716V16.5008C13.6641 15.8143 14.214 15.2449 14.9227 15.1976L20.0844 14.8529L27.2227 25.3647V16.1388L25.3853 15.8939V15.7653C25.3853 15.0707 25.9477 14.4976 26.6655 14.4608L31.3621 14.2203V14.8961C31.3621 15.2133 31.1261 15.4848 30.8028 15.5395L29.6725 15.7307V30.6716L28.2541 31.1593C27.0691 31.5669 25.7499 31.1307 25.0715 30.1071L18.1415 19.6496V29.6307L20.2744 30.0388L20.2448 30.2367C20.1516 30.8564 19.6165 31.3252 18.9693 31.354L13.6641 31.5901C13.594 30.9236 14.0935 30.3275 14.7825 30.2551L15.4804 30.1817V16.8736L13.6641 16.7716Z" fill="black"/>
<path fill-rule="evenodd" clip-rule="evenodd" d="M26.2332 2.62236L4.96463 4.07445C3.69066 4.16143 2.70312 5.18565 2.70312 6.41996V27.1065C2.70312 28.2662 3.10235 29.393 3.83791 30.3094L8.42374 36.0222C9.16518 36.9458 10.332 37.4545 11.5391 37.3802L35.1448 35.9271C36.3547 35.8526 37.2965 34.8825 37.2965 33.7109V10.1923C37.2965 9.46743 36.9305 8.78818 36.3159 8.37266L28.8433 3.32037C28.0817 2.80549 27.1603 2.55906 26.2332 2.62236ZM6.0193 6.74264C5.72349 6.52363 5.86427 6.06738 6.23587 6.04072L26.3763 4.59613C27.018 4.5501 27.6556 4.72681 28.1745 5.09449L32.2156 7.95748C32.3689 8.06618 32.2971 8.30082 32.1071 8.31115L10.7785 9.47112C10.133 9.50623 9.49591 9.3166 8.98269 8.93664L6.0193 6.74264ZM9.7781 13.1076C9.7781 12.4146 10.3379 11.8423 11.0537 11.8033L33.604 10.5752C34.3017 10.5373 34.8889 11.0738 34.8889 11.7491V32.1137C34.8889 32.8053 34.3312 33.377 33.6168 33.4177L11.2092 34.6926C10.4328 34.7369 9.7781 34.1402 9.7781 33.3886V13.1076Z" fill="black"/>
</svg>
