<svg width="56" height="56" viewBox="0 0 56 56" fill="none" xmlns="http://www.w3.org/2000/svg">
<path d="M28 56C43.464 56 56 43.464 56 28C56 12.536 43.464 0 28 0C12.536 0 0 12.536 0 28C0 43.464 12.536 56 28 56Z" fill="#8892BF"/>
<path d="M24.8784 16H28.2384L27.2888 21.0484H30.308C31.9638 21.0838 33.1972 21.4538 34.009 22.1586C34.8368 22.8632 35.0804 24.2028 34.7396 26.1762L33.1082 34.9778H29.6994L31.2576 26.5726C31.4198 25.6914 31.3712 25.066 31.1116 24.696C30.852 24.326 30.292 24.141 29.4316 24.141L26.7288 24.1146L24.7322 34.9778H21.3722L24.8784 16Z" fill="white"/>
<path fill-rule="evenodd" clip-rule="evenodd" d="M9.48184 21.0486H16.0072C17.9224 21.066 19.3104 21.6654 20.1708 22.8458C21.0312 24.0264 21.3152 25.6386 21.023 27.6828C20.9096 28.617 20.6578 29.533 20.2682 30.4318C19.8948 31.3304 19.3756 32.1408 18.71 32.8634C17.8982 33.7796 17.0298 34.361 16.1046 34.608C15.1794 34.8548 14.2215 34.978 13.2315 34.978H10.3097L9.38444 40H6L9.48184 21.0486ZM10.8697 31.9912L12.3257 24.0882H12.8176C12.9963 24.0882 13.1828 24.0792 13.3776 24.0618C14.6763 24.0442 15.7555 24.1764 16.616 24.4582C17.4924 24.74 17.7846 25.8062 17.4924 27.6564C17.1356 29.8592 16.4372 31.1454 15.3985 31.5154C14.3598 31.868 13.0611 32.0352 11.5028 32.0176H11.1619C11.0645 32.0176 10.9671 32.0086 10.8697 31.9912Z" fill="white"/>
<path fill-rule="evenodd" clip-rule="evenodd" d="M44.873 21.0486H38.3476L34.8658 40H38.2502L39.1756 34.978H42.0974C43.0874 34.978 44.0452 34.8548 44.9704 34.608C45.8958 34.361 46.764 33.7796 47.5758 32.8634C48.2414 32.1408 48.7606 31.3304 49.134 30.4318C49.5236 29.533 49.7754 28.617 49.8888 27.6828C50.181 25.6386 49.8972 24.0264 49.0366 22.8458C48.1762 21.6654 46.7884 21.066 44.873 21.0486ZM41.1916 24.0882L39.7356 31.9912C39.833 32.0086 39.9304 32.0176 40.0278 32.0176H40.3686C41.927 32.0352 43.2256 31.868 44.2644 31.5154C45.303 31.1454 46.0014 29.8592 46.3584 27.6564C46.6506 25.8062 46.3584 24.74 45.4818 24.4582C44.6214 24.1764 43.5422 24.0442 42.2434 24.0618C42.0486 24.0792 41.8622 24.0882 41.6834 24.0882H41.1916Z" fill="white"/>
</svg>
