<svg width="62" height="64" viewBox="0 0 62 64" fill="none" xmlns="http://www.w3.org/2000/svg">
<path d="M61.748 38.2355C61.3759 37.1086 60.4012 36.3236 59.1405 36.1351C58.5461 36.0464 57.8653 36.0843 57.0598 36.2504C55.6558 36.54 54.6141 36.6503 53.8538 36.6718C56.7233 31.8269 59.0566 26.3019 60.3999 21.1011C62.5719 12.6918 61.4112 8.86086 60.0549 7.1279C56.4654 2.54143 51.2284 0.077352 44.9101 0.00181867C41.5399 -0.0393162 38.5809 0.626151 37.0376 1.10458C35.6004 0.851175 34.0551 0.709567 32.4336 0.683339C29.3947 0.634894 26.7093 1.29735 24.4148 2.65896C23.1442 2.22955 21.1056 1.62399 18.7512 1.23744C13.2136 0.328318 8.7507 1.03678 5.48628 3.34292C1.53332 6.13521 -0.299261 10.9865 0.0397079 17.7623C0.147203 19.9137 1.35072 26.459 3.2455 32.6666C4.3345 36.2345 5.49574 39.1975 6.69696 41.4738C8.4004 44.7016 10.2231 46.6026 12.2694 47.2851C13.4164 47.6674 15.5003 47.9348 17.6922 46.1097C17.9699 46.4459 18.3404 46.7803 18.8325 47.0908C19.4571 47.4848 20.221 47.8067 20.9838 47.9975C23.7332 48.6848 26.3085 48.5129 28.5056 47.5496C28.5191 47.9403 28.5295 48.3136 28.5384 48.636C28.553 49.159 28.5674 49.6717 28.5866 50.1511C28.7167 53.3934 28.9373 55.9144 29.5909 57.6782C29.6267 57.7754 29.675 57.9231 29.726 58.0798C30.052 59.0782 30.5973 60.7494 31.9843 62.0584C33.4209 63.4141 35.1583 63.8301 36.7495 63.8299C37.5475 63.8299 38.309 63.7253 38.9768 63.5821C41.3576 63.072 44.0613 62.2946 46.0172 59.5098C47.8662 56.877 48.7652 52.9117 48.9278 46.6635C48.9489 46.4869 48.9684 46.3182 48.9872 46.1574C48.9998 46.0489 49.0127 45.938 49.0257 45.8273L49.4614 45.8656L49.5737 45.8732C51.9985 45.9837 54.9633 45.4695 56.7842 44.6237C58.223 43.9559 62.8336 41.5219 61.748 38.2355Z" fill="black"/>
<path d="M57.602 38.8746C50.3924 40.3618 49.8967 37.9208 49.8967 37.9208C57.509 26.6255 60.6911 12.2877 57.945 8.77866C50.4533 -0.793434 37.4848 3.73355 37.2683 3.85108L37.1987 3.86355C35.7743 3.56786 34.1802 3.39172 32.3886 3.36248C29.1264 3.30902 26.6518 4.21771 24.7741 5.64166C24.7741 5.64166 1.63952 -3.88887 2.71548 17.6281C2.94437 22.2057 9.27641 52.2641 16.829 43.185C19.5895 39.8651 22.2567 37.0581 22.2567 37.0581C23.5815 37.9381 25.1674 38.387 26.83 38.2258L26.9591 38.1161C26.919 38.5283 26.9373 38.9315 27.0108 39.4088C25.0652 41.5826 25.6369 41.9643 21.7474 42.7649C17.8118 43.576 20.1238 45.02 21.6334 45.3974C23.4634 45.8551 27.6971 46.5033 30.5578 42.4988L30.4437 42.9557C31.206 43.5663 31.7414 46.9274 31.6516 49.9743C31.5619 53.0213 31.502 55.1131 32.1027 56.7471C32.7034 58.381 33.302 62.0573 38.4151 60.9617C42.6875 60.0462 44.9015 57.6735 45.2095 53.7158C45.4281 50.9022 45.9227 51.3181 45.9539 48.8026L46.3507 47.6117C46.8082 43.7976 46.4233 42.5672 49.0555 43.1395L49.6952 43.1956C51.6326 43.2838 54.1682 42.884 55.6563 42.1923C58.8608 40.7052 60.7613 38.2222 57.6017 38.8746H57.602Z" fill="#336791"/>
<path d="M26.1283 19.6752C25.4787 19.5848 24.8902 19.6685 24.5925 19.8938C24.425 20.0206 24.3732 20.1676 24.3593 20.2687C24.3219 20.5366 24.5097 20.8327 24.6249 20.9855C24.9511 21.4179 25.4278 21.7152 25.8996 21.7807C25.968 21.7902 26.0359 21.7947 26.1036 21.7947C26.8905 21.7947 27.6057 21.1822 27.6687 20.73C27.7476 20.1637 26.9254 19.7862 26.1283 19.6752Z" fill="white"/>
<path d="M47.6517 19.6932C47.5898 19.2493 46.7996 19.1228 46.05 19.227C45.3015 19.3313 44.5756 19.6691 44.6362 20.114C44.6849 20.46 45.3094 21.0507 46.049 21.0505C46.1113 21.0505 46.1744 21.0464 46.2379 21.0375C46.7315 20.9691 47.0937 20.6557 47.2657 20.4749C47.5278 20.1997 47.6793 19.8927 47.6517 19.6932Z" fill="white"/>
<path d="M60.0012 38.7057C59.7263 37.8744 58.8415 37.6068 57.3714 37.9105C53.0065 38.8113 51.4434 38.1873 50.93 37.8093C54.3228 32.6407 57.1138 26.3932 58.6195 20.5639C59.3328 17.8027 59.7268 15.2385 59.7589 13.1485C59.7945 10.8541 59.4039 9.16842 58.598 8.13862C55.3489 3.98701 50.5806 1.76013 44.8083 1.69893C40.8402 1.65436 37.4875 2.66997 36.8375 2.95548C35.4687 2.61508 33.9766 2.40611 32.3522 2.37945C29.3732 2.33129 26.7983 3.04449 24.6663 4.49811C23.7403 4.15355 21.347 3.332 18.4204 2.8606C13.3604 2.04578 9.33964 2.66309 6.47023 4.6959C3.04643 7.12157 1.46582 11.4575 1.77211 17.583C1.87517 19.6441 3.0493 25.9838 4.90252 32.0555C7.3418 40.0467 9.99321 44.5706 12.7832 45.5011C13.1097 45.61 13.4864 45.6863 13.9015 45.6863C14.9192 45.6863 16.1669 45.2275 17.4651 43.6668C19.6215 41.0726 21.6348 38.8987 22.377 38.1089C23.4737 38.6977 24.6784 39.0263 25.9108 39.0593C25.913 39.0915 25.9163 39.1238 25.9191 39.1559C25.6719 39.4491 25.4691 39.7061 25.2962 39.9255C24.4424 41.0094 24.2647 41.235 21.5163 41.801C20.7346 41.9622 18.6579 42.3902 18.6277 43.8457C18.5946 45.4359 21.082 46.1038 21.3655 46.1746C22.3532 46.4218 23.3046 46.5438 24.212 46.5438C26.4189 46.5437 28.3609 45.8184 29.9129 44.4151C29.8651 50.0844 30.1016 55.6709 30.7822 57.373C31.3396 58.7663 32.7017 62.1718 37.0039 62.1715C37.635 62.1715 38.33 62.0981 39.0943 61.9343C43.5842 60.9715 45.5339 58.9872 46.2882 54.6123C46.6918 52.2742 47.3845 46.6907 47.7101 43.6959C48.3977 43.9103 49.2829 44.0085 50.2397 44.0084C52.2354 44.0084 54.5381 43.5844 55.9823 42.9141C57.6044 42.1607 60.532 40.3118 60.0012 38.7057ZM49.3088 18.4679C49.2939 19.3521 49.1722 20.1547 49.0432 20.9926C48.9045 21.8937 48.7609 22.8253 48.7248 23.9563C48.6891 25.0569 48.8265 26.2013 48.9595 27.3077C49.2281 29.5428 49.5037 31.8439 48.4367 34.1145C48.2708 33.82 48.1107 33.4986 47.964 33.1427C47.8314 32.8212 47.5435 32.3048 47.1449 31.5901C45.5935 28.8081 41.9607 22.2933 43.8204 19.6349C44.3742 18.8434 45.78 18.03 49.3088 18.4679ZM45.0315 3.48937C50.2033 3.60361 54.2943 5.53838 57.1909 9.23965C59.4125 12.0787 56.9662 24.9967 49.8843 36.1411C49.8143 36.0523 49.7431 35.9625 49.6694 35.8705C49.64 35.8337 49.6101 35.7963 49.5798 35.7584C51.4098 32.7361 51.052 29.7459 50.7335 27.0946C50.6026 26.0066 50.4791 24.979 50.5105 24.0138C50.543 22.9904 50.6783 22.1131 50.809 21.2647C50.97 20.2189 51.1335 19.1371 51.0884 17.8616C51.122 17.7279 51.1357 17.5698 51.118 17.3822C51.0028 16.1591 49.6065 12.4989 46.7603 9.18562C45.2036 7.37368 42.9332 5.34575 39.8333 3.97798C41.1667 3.70164 42.9901 3.44394 45.0315 3.48937ZM16.0913 42.5245C14.6611 44.2441 13.6733 43.9146 13.3485 43.8064C11.232 43.1004 8.77636 38.6273 6.61126 31.5339C4.73784 25.3962 3.64296 19.2244 3.55639 17.4937C3.28278 12.0203 4.60956 8.20569 7.50004 6.15583C12.204 2.81989 19.938 4.81658 23.0456 5.82933C23.0009 5.87333 22.9544 5.91461 22.9101 5.95933C17.8107 11.1095 17.9317 19.9086 17.9441 20.4464C17.9437 20.6539 17.961 20.9478 17.985 21.3519C18.0727 22.8318 18.2359 25.5862 17.7998 28.7056C17.3943 31.6043 18.2878 34.4414 20.2508 36.4896C20.4541 36.7015 20.6662 36.9006 20.8853 37.088C20.0115 38.0237 18.1125 40.0929 16.0913 42.5245ZM21.5408 35.2534C19.9586 33.6027 19.2401 31.3064 19.5692 28.953C20.0298 25.6578 19.8597 22.7879 19.7684 21.2462C19.7556 21.0305 19.7443 20.8414 19.7376 20.6922C20.4826 20.0317 23.9349 18.1818 26.3968 18.746C27.5205 19.0034 28.2049 19.7683 28.4896 21.0843C29.9627 27.8971 28.6846 30.7367 27.6577 33.0185C27.446 33.4886 27.2461 33.9329 27.0752 34.3927L26.9429 34.748C26.6078 35.6465 26.2961 36.4818 26.1029 37.2751C24.4211 37.27 22.7849 36.5516 21.5408 35.2534ZM21.7989 44.4413C21.3079 44.3187 20.8661 44.1055 20.607 43.9288C20.8234 43.8269 21.2087 43.6884 21.8767 43.5509C25.1101 42.8851 25.6093 42.4154 26.6997 41.0309C26.9498 40.7136 27.2332 40.3537 27.6256 39.9154L27.626 39.9148C28.2106 39.2604 28.478 39.3713 28.9628 39.5724C29.3558 39.7351 29.7385 40.2275 29.8937 40.7696C29.9671 41.0256 30.0497 41.5116 29.7798 41.8895C27.5019 45.0789 24.1827 45.0379 21.7989 44.4413ZM38.7198 60.1874C34.7644 61.0349 33.364 59.0167 32.4411 56.7096C31.8454 55.22 31.5527 48.5032 31.7604 41.0859C31.7632 40.9872 31.7491 40.8918 31.7219 40.8023C31.6982 40.6293 31.6618 40.4543 31.6114 40.2781C31.3024 39.1989 30.5497 38.2961 29.6468 37.9218C29.288 37.7732 28.6294 37.5004 27.8381 37.7028C28.007 37.0075 28.2997 36.2225 28.6168 35.3723L28.75 35.0146C28.8999 34.6114 29.0878 34.1938 29.2867 33.7517C30.3614 31.3642 31.8332 28.0942 30.2359 20.7067C29.6375 17.9397 27.6395 16.5886 24.6106 16.9023C22.7946 17.0903 21.1334 17.8229 20.3049 18.243C20.1267 18.3333 19.9638 18.4205 19.8115 18.5055C20.0427 15.7175 20.9166 10.5074 24.185 7.211C26.2428 5.13563 28.9835 4.1107 32.3227 4.16588C38.9021 4.27366 43.1212 7.65016 45.5023 10.4638C47.5541 12.8885 48.6651 15.3308 49.1086 16.6479C45.7741 16.309 43.5062 16.9673 42.3565 18.6108C39.8554 22.186 43.7248 29.1253 45.5845 32.4602C45.9254 33.0715 46.2198 33.5997 46.3124 33.8241C46.918 35.2918 47.702 36.2716 48.2744 36.9869C48.4499 37.2061 48.6201 37.4186 48.7496 37.6042C47.7397 37.8955 45.9256 38.5681 46.0908 41.9307C45.9575 43.6181 45.0093 51.5177 44.5277 54.3087C43.8919 57.9959 42.535 59.3694 38.7198 60.1874ZM55.2299 41.2936C54.1973 41.773 52.469 42.1326 50.8272 42.2097C49.0138 42.2947 48.0908 42.0066 47.8737 41.8295C47.7716 39.7341 48.5518 39.515 49.3772 39.2833C49.5069 39.2467 49.6335 39.2113 49.7556 39.1686C49.8315 39.2304 49.9147 39.2917 50.0057 39.3518C51.4632 40.3138 54.0628 40.4176 57.7327 39.6601C57.7462 39.6572 57.7597 39.6547 57.773 39.6519C57.2781 40.1147 56.431 40.7359 55.2299 41.2936Z" fill="white"/>
</svg>
