<svg xmlns="http://www.w3.org/2000/svg" viewBox="0 0 24 24" width="24" height="24"><path d="M11.9 1C6.4 1 6.8 3.3 6.8 3.3l0 2.4h5.3v.7H4.5S1 6 1 11.9s3.1 5.7 3.1 5.7h1.8v-2.7s-.1-3.1 3.1-3.1h5.3s3-.1 3-2.9V4.3S17.8 1 11.9 1zm-3 1.9c.5 0 1 .4 1 1s-.4 1-1 1c-.5 0-1-.4-1-1s.5-1 1-1z" fill="#3776AB"/><path d="M12.1 23c5.5 0 5.1-2.3 5.1-2.3l0-2.4h-5.3v-.7h7.6S23 18 23 12.1s-3.1-5.7-3.1-5.7h-1.8v2.7s.1 3.1-3.1 3.1H9.7s-3 .1-3 2.9v4.6S6.2 23 12.1 23zm3-1.9c-.5 0-1-.4-1-1s.4-1 1-1c.5 0 1 .4 1 1s-.5 1-1 1z" fill="#FFD43B"/></svg>
