<svg width="60" height="56" viewBox="0 0 60 56" fill="none" xmlns="http://www.w3.org/2000/svg">
<path d="M41.5736 39.11C43.7878 38.8846 45.4676 37.008 45.3912 34.7558C45.315 32.504 43.406 30.7024 41.1154 30.7024H40.9628C38.5956 30.7774 36.7634 32.7292 36.8398 35.0562C36.9162 36.1822 37.3742 37.158 38.0614 37.8336C35.4654 42.8632 31.495 46.5414 25.5396 49.6192C21.4928 51.721 17.2936 52.4718 13.0943 51.9464C9.65836 51.496 6.98602 49.9948 5.30602 47.5172C2.86288 43.839 2.6339 39.8604 4.69546 35.882C6.14624 33.0294 8.43656 30.9274 9.88734 29.8764C9.58196 28.9006 9.12374 27.2492 8.89476 26.0482C-2.17641 33.9302 -1.03102 44.5898 2.32852 49.6192C4.84804 53.3726 9.96374 55.6998 15.6138 55.6998C17.1408 55.6998 18.6678 55.5494 20.195 55.1744C29.9682 53.2976 37.3744 47.5924 41.5736 39.11ZM55.0118 29.8016C49.209 23.1206 40.6574 19.4424 30.8842 19.4424H29.6628C28.9756 18.0912 27.5248 17.1902 25.9214 17.1902H25.7686C23.4018 17.2654 21.5696 19.217 21.6458 21.5442C21.7222 23.7962 23.6308 25.5978 25.9214 25.5978H26.074C27.7538 25.5228 29.2046 24.4718 29.8154 23.0454H31.1896C36.9926 23.0454 42.4898 24.6968 47.453 27.9248C51.2704 30.402 54.0192 33.63 55.5462 37.5334C56.8442 40.6862 56.7678 43.764 55.3934 46.3914C53.2556 50.3698 49.6672 52.5468 44.9332 52.5468C41.879 52.5468 38.9778 51.646 37.4506 50.9704C36.6108 51.721 35.0836 52.922 34.0146 53.673C37.298 55.1742 40.6574 56 43.8642 56C51.194 56 56.6152 52.0212 58.6768 48.0428C60.8908 43.6888 60.738 36.1822 55.0118 29.8016ZM16.2246 40.3858C16.301 42.6378 18.2098 44.4392 20.5004 44.4392H20.6532C23.02 44.3644 24.8524 42.4126 24.776 40.0856C24.6998 37.8334 22.7908 36.032 20.5004 36.032H20.3478C20.195 36.032 19.9658 36.032 19.8134 36.1068C16.6828 31.0024 15.3848 25.4476 15.843 19.4422C16.1482 14.9382 17.6754 11.0346 20.3478 7.80664C22.5618 5.02914 26.8376 3.67796 29.7392 3.60308C37.8324 3.45284 41.268 13.3616 41.4972 17.3402C42.4898 17.5654 44.1696 18.091 45.315 18.4664C44.3986 6.30568 36.7634 0 29.4338 0C22.5618 0 16.2246 4.87938 13.7048 12.0858C10.1927 21.6942 12.4833 30.9274 16.759 38.209C16.3774 38.7344 16.1482 39.56 16.2246 40.3858Z" fill="#764ABC"/>
</svg>
