<svg width="40" height="40" viewBox="0 0 40 40" fill="none" xmlns="http://www.w3.org/2000/svg">
<path d="M36.0765 2.28437C35.5073 3.67272 34.7713 4.90352 33.9567 6.00632C30.3647 2.3336 25.3399 0 19.795 0C8.90136 0 0 8.88148 0 19.8504C0 25.581 2.4437 30.7405 6.32026 34.3837L7.05632 35.0434C10.4814 37.9481 14.937 39.7106 19.7852 39.7106C30.1881 39.7106 38.7558 31.5676 39.4918 21.288C40.0807 16.2958 38.5693 9.90551 36.0765 2.28437ZM9.18597 34.5511C8.61675 35.2896 7.55683 35.3684 6.82078 34.7973C6.08472 34.2262 6.00621 33.1628 6.57543 32.4243C7.14464 31.6858 8.20456 31.607 8.94062 32.1781C9.63742 32.7492 9.75519 33.8126 9.18597 34.5511ZM35.9588 28.6137C31.1008 35.1222 20.6586 32.9166 14.0047 33.2415C14.0047 33.2415 12.8172 33.3203 11.6395 33.4877C11.6395 33.4877 12.0909 33.2809 12.6602 33.0742C17.3513 31.4396 19.5594 31.1049 22.4153 29.6377C27.764 26.8906 33.1029 20.8744 34.1726 14.6515C32.1313 20.6283 25.9288 25.7878 20.2955 27.8752C16.4189 29.3128 9.44114 30.7012 9.44114 30.7012L9.15653 30.5338C4.42615 28.2002 4.25931 17.8811 12.9153 14.5629C16.7134 13.0859 20.3053 13.9032 24.4272 12.9284C28.7945 11.9043 33.8585 8.62547 35.8901 4.33243C38.1571 11.2545 40.9345 21.9772 35.9588 28.6137Z" fill="#6CB52D"/>
</svg>
