<svg width="40" height="40" viewBox="0 0 40 40" fill="none" xmlns="http://www.w3.org/2000/svg">
<path d="M34 0H6C2.68629 0 0 2.68629 0 6V34C0 37.3137 2.68629 40 6 40H34C37.3137 40 40 37.3137 40 34V6C40 2.68629 37.3137 0 34 0Z" fill="#3178C6"/>
<path d="M18.2031 22.1875H23.2031V18.9844H9.21875V22.1875H14.2188V36.4844H18.2031V22.1875ZM24.7656 35.7031C25.3984 36.0312 26.1719 36.2734 27.0312 36.4375C27.8906 36.6016 28.8281 36.6797 29.7656 36.6797C30.7031 36.6797 31.5625 36.5937 32.4219 36.4141C33.2812 36.2344 33.9844 35.9375 34.6094 35.5547C35.2422 35.1406 35.7812 34.6172 36.0938 33.9141C36.4062 33.2109 36.6484 32.4297 36.6484 31.4141C36.6484 30.7031 36.5391 30.0859 36.3281 29.5391C36.1172 28.9922 35.8125 28.5234 35.3906 28.1328C34.9922 27.7187 34.5312 27.3516 33.9844 27.0391C33.4375 26.7266 32.8125 26.3984 32.1094 26.1016C31.5938 25.8906 31.1719 25.6875 30.7031 25.4844C30.2969 25.2812 29.9453 25.0781 29.6875 24.875C29.3984 24.6641 29.1797 24.4453 29.0234 24.2187C28.8672 23.9844 28.7891 23.7266 28.7891 23.4375C28.7891 23.1719 28.8586 22.9297 29 22.7109C29.1414 22.4922 29.3359 22.3125 29.5859 22.1562C29.8359 22 30.1484 21.8828 30.5234 21.7969C30.8906 21.7109 31.2969 21.6719 31.7734 21.6719C32.1016 21.6719 32.4453 21.6961 32.7891 21.7453C33.1484 21.7945 33.5156 21.8703 33.8828 21.9719C34.25 22.0734 34.6094 22.1984 34.9766 22.3547C35.3203 22.5109 35.6406 22.6906 35.9141 22.8937V19.2219C35.3203 18.9953 34.6641 18.8234 33.9609 18.714C33.2578 18.6047 32.4766 18.55 31.5391 18.55C30.6016 18.55 29.7422 18.6516 28.8828 18.8469C28.0234 19.0422 27.3203 19.3547 26.6953 19.7844C26.0625 20.2062 25.6016 20.7219 25.2109 21.425C24.8438 22.0812 24.6641 22.8312 24.6641 23.7687C24.6641 24.9406 25 25.9562 25.6797 26.7375C26.3516 27.5969 27.3984 28.2219 28.7266 28.8469C29.2656 29.0656 29.7422 29.2844 30.2109 29.4953C30.6797 29.7062 31.0703 29.925 31.3828 30.1516C31.7188 30.3781 31.9844 30.6281 32.1641 30.8937C32.3594 31.1594 32.4609 31.4719 32.4609 31.8312C32.4609 32.0812 32.4 32.3156 32.2812 32.5344C32.1625 32.7531 31.9766 32.9406 31.7266 33.0969C31.4766 33.2531 31.1719 33.3781 30.7891 33.4719C30.4219 33.5578 30.0078 33.6047 29.4609 33.6047C28.6016 33.6047 27.7422 33.4562 26.9609 33.1594C26.1016 32.8625 25.3203 32.4172 24.7656 31.9531V35.7031Z" fill="white"/>
</svg>
