<svg width="62" height="64" viewBox="0 0 62 64" fill="none" xmlns="http://www.w3.org/2000/svg">
<g clip-path="url(#clip0_60_667)">
<path d="M61.7422 9.14971L32.6425 61.0111C32.0415 62.0817 30.4981 62.0881 29.8881 61.0226L0.211585 9.15457C-0.4527 7.9933 0.543285 6.58684 1.86344 6.82188L30.9946 12.0116C31.1804 12.0447 31.3707 12.0444 31.5564 12.0107L60.0781 6.82938C61.3939 6.59037 62.3949 7.98624 61.7422 9.14971Z" fill="url(#paint0_linear_60_667)"/>
<path d="M44.8711 0.0152369L23.3365 4.2207C23.1644 4.25426 23.0084 4.34389 22.893 4.47549C22.7776 4.60708 22.7094 4.77318 22.699 4.94765L21.3745 27.2457C21.3435 27.7709 21.8273 28.1785 22.3414 28.0603L28.3371 26.6814C28.8982 26.5523 29.405 27.0449 29.2896 27.607L27.5085 36.3006C27.3885 36.8854 27.9396 37.3859 28.5129 37.2125L32.216 36.0909C32.7902 35.9173 33.3418 36.4191 33.2204 37.0046L30.3897 50.6602C30.2126 51.5143 31.3525 51.9799 31.8279 51.2477L32.1454 50.7586L49.693 15.8561C49.9868 15.2717 49.4804 14.6055 48.836 14.7293L42.6648 15.9164C42.0847 16.0278 41.5913 15.4896 41.755 14.9239L45.783 1.00724C45.9468 0.440506 45.4517 -0.0981976 44.8711 0.0152369Z" fill="url(#paint1_linear_60_667)"/>
</g>
<defs>
<linearGradient id="paint0_linear_60_667" x1="-0.513073" y1="4.9682" x2="35.5451" y2="54.1021" gradientUnits="userSpaceOnUse">
<stop stop-color="#41D1FF"/>
<stop offset="1" stop-color="#BD34FE"/>
</linearGradient>
<linearGradient id="paint1_linear_60_667" x1="29.321" y1="1.15686" x2="35.8294" y2="45.9531" gradientUnits="userSpaceOnUse">
<stop stop-color="#FFEA83"/>
<stop offset="0.0833" stop-color="#FFDD35"/>
<stop offset="1" stop-color="#FFA800"/>
</linearGradient>
<clipPath id="clip0_60_667">
<rect width="62" height="64" fill="white"/>
</clipPath>
</defs>
</svg>
