<svg width="200" height="200" viewBox="0 0 200 200" fill="none" xmlns="http://www.w3.org/2000/svg">
    <g clip-path="url(#clip0_231_240)">
        <path fill-rule="evenodd" clip-rule="evenodd"
            d="M0 49H27.5H28V48.9943C39.6432 48.7286 49 39.207 49 27.5V0H55V28C55 39.598 64.402 49 76 49C87.598 49 97 39.598 97 28V0H103V28C103 39.598 112.402 49 124 49C135.598 49 145 39.598 145 28V0H152V28C152 39.598 161.402 49 173 49H200V55H172C160.402 55 151 64.402 151 76C151 87.598 160.402 97 172 97H200V103H172C160.402 103 151 112.402 151 124C151 135.598 160.402 145 172 145H200V151H173C161.402 151 152 160.402 152 172V173V200H145V172C145 160.402 135.598 151 124 151C112.402 151 103 160.402 103 172V200H97V172C97 160.402 87.598 151 76 151C64.402 151 55 160.402 55 172V200H49V172.5C49 160.793 39.6432 151.271 28 151.006V151H27.5H0V145H28C39.598 145 49 135.598 49 124C49 112.402 39.598 103 28 103L0 103V97L28 97C39.598 97 49 87.598 49 76C49 64.402 39.598 55 28 55L0 55V49ZM76 97C87.598 97 97 87.598 97 76C97 64.402 87.598 55 76 55C64.402 55 55 64.402 55 76C55 87.598 64.402 97 76 97ZM124 97C135.598 97 145 87.598 145 76C145 64.402 135.598 55 124 55C112.402 55 103 64.402 103 76C103 87.598 112.402 97 124 97ZM97 124C97 135.598 87.598 145 76 145C64.402 145 55 135.598 55 124C55 112.402 64.402 103 76 103C87.598 103 97 112.402 97 124ZM124 145C135.598 145 145 135.598 145 124C145 112.402 135.598 103 124 103C112.402 103 103 112.402 103 124C103 135.598 112.402 145 124 145Z"
            fill="url(#paint0_linear_231_240)" />
    </g>
    <defs>
        <linearGradient id="paint0_linear_231_240" x1="20.5" y1="16" x2="100" y2="200" gradientUnits="userSpaceOnUse">
            <stop stop-color="#c7d2fe" />
            <stop offset="1" stop-color="#c7d2fe" />
        </linearGradient>
        <clipPath id="clip0_231_240">
            <rect width="200" height="200" fill="white" />
        </clipPath>
    </defs>
</svg>