<?xml version="1.0" ?><!-- Uploaded to: SVG Repo, www.svgrepo.com, Generator: SVG Repo Mixer Tools -->
<svg width="800px" height="800px" viewBox="0 0 24 24" fill="none" xmlns="http://www.w3.org/2000/svg"><path d="M9.5 5H9C7.89543 5 7 5.89543 7 7V9C7 10 6.4 12 4 12C5 12 7 12.6 7 15V17.0002C7 18.1048 7.89543 19 9 19H9.5M14.5 5H15C16.1046 5 17 5.89543 17 7V9C17 10 17.6 12 20 12C19 12 17 12.6 17 15V17.0002C17 18.1048 16.1046 19 15 19H14.5" stroke="#000000" stroke-linecap="round" stroke-linejoin="round" stroke-width="2"/></svg>