<svg xmlns="http://www.w3.org/2000/svg" width="1440" height="697" fill="none"><path stroke="url(#a)" stroke-width=".585" d="M-262.181 0h-46.784v46.784M-262.181 0v46.784m0-46.784h46.785m-46.785 46.784h-46.784m46.784 0V93.57m0-46.785h46.785m-93.569 0V93.57m46.784 0h-46.784m46.784 0v46.784m0-46.784h46.785m-93.569 0v46.784m46.784 0h-46.784m46.784 0v46.784m0-46.784h46.785m-93.569 0v46.784m46.784 0h-46.784m46.784 0v46.784m0-46.784h46.785m-93.569 0v46.784m46.784 0h-46.784m46.784 0v46.785m0-46.785h46.785m-93.569 0v46.785m46.784 0h-46.784m46.784 0v46.784m0-46.784h46.785m-93.569 0v46.784m46.784 0h-46.784m46.784 0v46.784m0-46.784h46.785m-93.569 0v46.784m46.784 0h-46.784m46.784 0v46.785m0-46.785h46.785m-93.569 0v46.785m46.784 0h-46.784m46.784 0v46.784m0-46.784h46.785m-93.569 0v46.784m46.784 0h-46.784m46.784 0v46.784m0-46.784h46.785m-93.569 0v46.784m46.784 0h-46.784m46.784 0v46.784m0-46.784h46.785m-93.569 0v46.784m46.784 0h-46.784m46.784 0v46.785m0-46.785h46.785m-93.569 0v46.785m46.784 0h-46.784m46.784 0v46.784m0-46.784h46.785m-93.569 0v46.784m46.784 0h-46.784m46.784 0v46.784m0-46.784h46.785m-93.569 0v46.784m46.784 0h-46.784m46.784 0v46.785m0-46.785h46.785m-93.569 0v46.785m46.784 0h-46.784m46.784 0v46.784m0-46.784h46.785m-93.569 0v46.784m46.784 0h-46.784m46.784 0v46.784m0-46.784h46.785m-93.569 0v46.784m46.784 0h-46.784m46.784 0v46.784m0-46.784h46.785m-93.569 0v46.784m46.784 0h-46.784m46.784 0v46.785m0-46.785h46.785m-93.569 0v46.785h46.784m0 0h46.785m0-935.686v46.784m0-46.784h46.784m-46.784 46.784V93.57m0-46.785h46.784m-46.784 46.785v46.784m0-46.784h46.784m-46.784 46.784v46.784m0-46.784h46.784m-46.784 46.784v46.784m0-46.784h46.784m-46.784 46.784v46.785m0-46.785h46.784m-46.784 46.785v46.784m0-46.784h46.784m-46.784 46.784v46.784m0-46.784h46.784m-46.784 46.784v46.785m0-46.785h46.784m-46.784 46.785v46.784m0-46.784h46.784m-46.784 46.784v46.784m0-46.784h46.784m-46.784 46.784v46.784m0-46.784h46.784m-46.784 46.784v46.785m0-46.785h46.784m-46.784 46.785v46.784m0-46.784h46.784m-46.784 46.784v46.784m0-46.784h46.784m-46.784 46.784v46.785m0-46.785h46.784m-46.784 46.785v46.784m0-46.784h46.784m-46.784 46.784v46.784m0-46.784h46.784m-46.784 46.784v46.784m0-46.784h46.784m-46.784 46.784v46.785m0-46.785h46.784m-46.784 46.785h46.784m0-935.686v46.784m0-46.784h46.784m-46.784 46.784V93.57m0-46.785h46.784m-46.784 46.785v46.784m0-46.784h46.784m-46.784 46.784v46.784m0-46.784h46.784m-46.784 46.784v46.784m0-46.784h46.784m-46.784 46.784v46.785m0-46.785h46.784m-46.784 46.785v46.784m0-46.784h46.784m-46.784 46.784v46.784m0-46.784h46.784m-46.784 46.784v46.785m0-46.785h46.784m-46.784 46.785v46.784m0-46.784h46.784m-46.784 46.784v46.784m0-46.784h46.784m-46.784 46.784v46.784m0-46.784h46.784m-46.784 46.784v46.785m0-46.785h46.784m-46.784 46.785v46.784m0-46.784h46.784m-46.784 46.784v46.784m0-46.784h46.784m-46.784 46.784v46.785m0-46.785h46.784m-46.784 46.785v46.784m0-46.784h46.784m-46.784 46.784v46.784m0-46.784h46.784m-46.784 46.784v46.784m0-46.784h46.784m-46.784 46.784v46.785m0-46.785h46.784m-46.784 46.785h46.784m0-935.686v46.784m0-46.784h46.785m-46.785 46.784V93.57m0-46.785h46.785m-46.785 46.785v46.784m0-46.784h46.785m-46.785 46.784v46.784m0-46.784h46.785m-46.785 46.784v46.784m0-46.784h46.785m-46.785 46.784v46.785m0-46.785h46.785m-46.785 46.785v46.784m0-46.784h46.785m-46.785 46.784v46.784m0-46.784h46.785m-46.785 46.784v46.785m0-46.785h46.785m-46.785 46.785v46.784m0-46.784h46.785m-46.785 46.784v46.784m0-46.784h46.785m-46.785 46.784v46.784m0-46.784h46.785m-46.785 46.784v46.785m0-46.785h46.785m-46.785 46.785v46.784m0-46.784h46.785m-46.785 46.784v46.784m0-46.784h46.785m-46.785 46.784v46.785m0-46.785h46.785m-46.785 46.785v46.784m0-46.784h46.785m-46.785 46.784v46.784m0-46.784h46.785m-46.785 46.784v46.784m0-46.784h46.785m-46.785 46.784v46.785m0-46.785h46.785m-46.785 46.785h46.785m0-935.686v46.784m0-46.784h46.784m-46.784 46.784V93.57m0-46.785h46.784M-75.043 93.57v46.784m0-46.784h46.784m-46.784 46.784v46.784m0-46.784h46.784m-46.784 46.784v46.784m0-46.784h46.784m-46.784 46.784v46.785m0-46.785h46.784m-46.784 46.785v46.784m0-46.784h46.784m-46.784 46.784v46.784m0-46.784h46.784m-46.784 46.784v46.785m0-46.785h46.784m-46.784 46.785v46.784m0-46.784h46.784m-46.784 46.784v46.784m0-46.784h46.784m-46.784 46.784v46.784m0-46.784h46.784m-46.784 46.784v46.785m0-46.785h46.784m-46.784 46.785v46.784m0-46.784h46.784m-46.784 46.784v46.784m0-46.784h46.784m-46.784 46.784v46.785m0-46.785h46.784m-46.784 46.785v46.784m0-46.784h46.784m-46.784 46.784v46.784m0-46.784h46.784m-46.784 46.784v46.784m0-46.784h46.784m-46.784 46.784v46.785m0-46.785h46.784m-46.784 46.785h46.784M-28.26 0v46.784m0-46.784h46.784M-28.26 46.784V93.57m0-46.785h46.784M-28.259 93.57v46.784m0-46.784h46.784m-46.784 46.784v46.784m0-46.784h46.784m-46.784 46.784v46.784m0-46.784h46.784m-46.784 46.784v46.785m0-46.785h46.784m-46.784 46.785v46.784m0-46.784h46.784m-46.784 46.784v46.784m0-46.784h46.784m-46.784 46.784v46.785m0-46.785h46.784m-46.784 46.785v46.784m0-46.784h46.784m-46.784 46.784v46.784m0-46.784h46.784m-46.784 46.784v46.784m0-46.784h46.784m-46.784 46.784v46.785m0-46.785h46.784m-46.784 46.785v46.784m0-46.784h46.784m-46.784 46.784v46.784m0-46.784h46.784m-46.784 46.784v46.785m0-46.785h46.784m-46.784 46.785v46.784m0-46.784h46.784m-46.784 46.784v46.784m0-46.784h46.784m-46.784 46.784v46.784m0-46.784h46.784m-46.784 46.784v46.785m0-46.785h46.784m-46.784 46.785h46.784M18.525 0v46.784m0-46.784H65.31M18.525 46.784V93.57m0-46.785H65.31M18.525 93.57v46.784m0-46.784H65.31m-46.785 46.784v46.784m0-46.784H65.31m-46.785 46.784v46.784m0-46.784H65.31m-46.785 46.784v46.785m0-46.785H65.31m-46.785 46.785v46.784m0-46.784H65.31M18.525 327.49v46.784m0-46.784H65.31m-46.785 46.784v46.785m0-46.785H65.31m-46.785 46.785v46.784m0-46.784H65.31m-46.785 46.784v46.784m0-46.784H65.31m-46.785 46.784v46.784m0-46.784H65.31m-46.785 46.784v46.785m0-46.785H65.31m-46.785 46.785v46.784m0-46.784H65.31M18.525 654.98v46.784m0-46.784H65.31m-46.785 46.784v46.785m0-46.785H65.31m-46.785 46.785v46.784m0-46.784H65.31m-46.785 46.784v46.784m0-46.784H65.31m-46.785 46.784v46.784m0-46.784H65.31m-46.785 46.784v46.785m0-46.785H65.31m-46.785 46.785H65.31M65.31 0v46.784M65.31 0h46.784M65.31 46.784V93.57m0-46.785h46.784M65.31 93.57v46.784m0-46.784h46.784M65.31 140.353v46.784m0-46.784h46.784M65.31 187.137v46.784m0-46.784h46.784M65.31 233.921v46.785m0-46.785h46.784M65.31 280.706v46.784m0-46.784h46.784M65.31 327.49v46.784m0-46.784h46.784M65.31 374.274v46.785m0-46.785h46.784M65.31 421.059v46.784m0-46.784h46.784M65.31 467.843v46.784m0-46.784h46.784M65.31 514.627v46.784m0-46.784h46.784M65.31 561.411v46.785m0-46.785h46.784M65.31 608.196v46.784m0-46.784h46.784M65.31 654.98v46.784m0-46.784h46.784M65.31 701.764v46.785m0-46.785h46.784M65.31 748.549v46.784m0-46.784h46.784M65.31 795.333v46.784m0-46.784h46.784M65.31 842.117v46.784m0-46.784h46.784M65.31 888.901v46.785m0-46.785h46.784M65.31 935.686h46.784m0-935.686v46.784m0-46.784h46.784m-46.784 46.784V93.57m0-46.785h46.784M112.094 93.57v46.784m0-46.784h46.784m-46.784 46.784v46.784m0-46.784h46.784m-46.784 46.784v46.784m0-46.784h46.784m-46.784 46.784v46.785m0-46.785h46.784m-46.784 46.785v46.784m0-46.784h46.784m-46.784 46.784v46.784m0-46.784h46.784m-46.784 46.784v46.785m0-46.785h46.784m-46.784 46.785v46.784m0-46.784h46.784m-46.784 46.784v46.784m0-46.784h46.784m-46.784 46.784v46.784m0-46.784h46.784m-46.784 46.784v46.785m0-46.785h46.784m-46.784 46.785v46.784m0-46.784h46.784m-46.784 46.784v46.784m0-46.784h46.784m-46.784 46.784v46.785m0-46.785h46.784m-46.784 46.785v46.784m0-46.784h46.784m-46.784 46.784v46.784m0-46.784h46.784m-46.784 46.784v46.784m0-46.784h46.784m-46.784 46.784v46.785m0-46.785h46.784m-46.784 46.785h46.784m0-935.686v46.784m0-46.784h46.784m-46.784 46.784V93.57m0-46.785h46.784M158.878 93.57v46.784m0-46.784h46.784m-46.784 46.784v46.784m0-46.784h46.784m-46.784 46.784v46.784m0-46.784h46.784m-46.784 46.784v46.785m0-46.785h46.784m-46.784 46.785v46.784m0-46.784h46.784m-46.784 46.784v46.784m0-46.784h46.784m-46.784 46.784v46.785m0-46.785h46.784m-46.784 46.785v46.784m0-46.784h46.784m-46.784 46.784v46.784m0-46.784h46.784m-46.784 46.784v46.784m0-46.784h46.784m-46.784 46.784v46.785m0-46.785h46.784m-46.784 46.785v46.784m0-46.784h46.784m-46.784 46.784v46.784m0-46.784h46.784m-46.784 46.784v46.785m0-46.785h46.784m-46.784 46.785v46.784m0-46.784h46.784m-46.784 46.784v46.784m0-46.784h46.784m-46.784 46.784v46.784m0-46.784h46.784m-46.784 46.784v46.785m0-46.785h46.784m-46.784 46.785h46.784m0-935.686v46.784m0-46.784h46.785m-46.785 46.784V93.57m0-46.785h46.785M205.662 93.57v46.784m0-46.784h46.785m-46.785 46.784v46.784m0-46.784h46.785m-46.785 46.784v46.784m0-46.784h46.785m-46.785 46.784v46.785m0-46.785h46.785m-46.785 46.785v46.784m0-46.784h46.785m-46.785 46.784v46.784m0-46.784h46.785m-46.785 46.784v46.785m0-46.785h46.785m-46.785 46.785v46.784m0-46.784h46.785m-46.785 46.784v46.784m0-46.784h46.785m-46.785 46.784v46.784m0-46.784h46.785m-46.785 46.784v46.785m0-46.785h46.785m-46.785 46.785v46.784m0-46.784h46.785m-46.785 46.784v46.784m0-46.784h46.785m-46.785 46.784v46.785m0-46.785h46.785m-46.785 46.785v46.784m0-46.784h46.785m-46.785 46.784v46.784m0-46.784h46.785m-46.785 46.784v46.784m0-46.784h46.785m-46.785 46.784v46.785m0-46.785h46.785m-46.785 46.785h46.785m0-935.686v46.784m0-46.784h46.784m-46.784 46.784V93.57m0-46.785h46.784M252.447 93.57v46.784m0-46.784h46.784m-46.784 46.784v46.784m0-46.784h46.784m-46.784 46.784v46.784m0-46.784h46.784m-46.784 46.784v46.785m0-46.785h46.784m-46.784 46.785v46.784m0-46.784h46.784m-46.784 46.784v46.784m0-46.784h46.784m-46.784 46.784v46.785m0-46.785h46.784m-46.784 46.785v46.784m0-46.784h46.784m-46.784 46.784v46.784m0-46.784h46.784m-46.784 46.784v46.784m0-46.784h46.784m-46.784 46.784v46.785m0-46.785h46.784m-46.784 46.785v46.784m0-46.784h46.784m-46.784 46.784v46.784m0-46.784h46.784m-46.784 46.784v46.785m0-46.785h46.784m-46.784 46.785v46.784m0-46.784h46.784m-46.784 46.784v46.784m0-46.784h46.784m-46.784 46.784v46.784m0-46.784h46.784m-46.784 46.784v46.785m0-46.785h46.784m-46.784 46.785h46.784m0-935.686v46.784m0-46.784h46.784m-46.784 46.784V93.57m0-46.785h46.784M299.231 93.57v46.784m0-46.784h46.784m-46.784 46.784v46.784m0-46.784h46.784m-46.784 46.784v46.784m0-46.784h46.784m-46.784 46.784v46.785m0-46.785h46.784m-46.784 46.785v46.784m0-46.784h46.784m-46.784 46.784v46.784m0-46.784h46.784m-46.784 46.784v46.785m0-46.785h46.784m-46.784 46.785v46.784m0-46.784h46.784m-46.784 46.784v46.784m0-46.784h46.784m-46.784 46.784v46.784m0-46.784h46.784m-46.784 46.784v46.785m0-46.785h46.784m-46.784 46.785v46.784m0-46.784h46.784m-46.784 46.784v46.784m0-46.784h46.784m-46.784 46.784v46.785m0-46.785h46.784m-46.784 46.785v46.784m0-46.784h46.784m-46.784 46.784v46.784m0-46.784h46.784m-46.784 46.784v46.784m0-46.784h46.784m-46.784 46.784v46.785m0-46.785h46.784m-46.784 46.785h46.784m0-935.686v46.784m0-46.784H392.8m-46.785 46.784V93.57m0-46.785H392.8M346.015 93.57v46.784m0-46.784H392.8m-46.785 46.784v46.784m0-46.784H392.8m-46.785 46.784v46.784m0-46.784H392.8m-46.785 46.784v46.785m0-46.785H392.8m-46.785 46.785v46.784m0-46.784H392.8m-46.785 46.784v46.784m0-46.784H392.8m-46.785 46.784v46.785m0-46.785H392.8m-46.785 46.785v46.784m0-46.784H392.8m-46.785 46.784v46.784m0-46.784H392.8m-46.785 46.784v46.784m0-46.784H392.8m-46.785 46.784v46.785m0-46.785H392.8m-46.785 46.785v46.784m0-46.784H392.8m-46.785 46.784v46.784m0-46.784H392.8m-46.785 46.784v46.785m0-46.785H392.8m-46.785 46.785v46.784m0-46.784H392.8m-46.785 46.784v46.784m0-46.784H392.8m-46.785 46.784v46.784m0-46.784H392.8m-46.785 46.784v46.785m0-46.785H392.8m-46.785 46.785H392.8M392.8 0v46.784M392.8 0h46.784M392.8 46.784V93.57m0-46.785h46.784M392.8 93.57v46.784m0-46.784h46.784M392.8 140.353v46.784m0-46.784h46.784M392.8 187.137v46.784m0-46.784h46.784M392.8 233.921v46.785m0-46.785h46.784M392.8 280.706v46.784m0-46.784h46.784M392.8 327.49v46.784m0-46.784h46.784M392.8 374.274v46.785m0-46.785h46.784M392.8 421.059v46.784m0-46.784h46.784M392.8 467.843v46.784m0-46.784h46.784M392.8 514.627v46.784m0-46.784h46.784M392.8 561.411v46.785m0-46.785h46.784M392.8 608.196v46.784m0-46.784h46.784M392.8 654.98v46.784m0-46.784h46.784M392.8 701.764v46.785m0-46.785h46.784M392.8 748.549v46.784m0-46.784h46.784M392.8 795.333v46.784m0-46.784h46.784M392.8 842.117v46.784m0-46.784h46.784M392.8 888.901v46.785m0-46.785h46.784M392.8 935.686h46.784m0-935.686v46.784m0-46.784h46.784m-46.784 46.784V93.57m0-46.785h46.784M439.584 93.57v46.784m0-46.784h46.784m-46.784 46.784v46.784m0-46.784h46.784m-46.784 46.784v46.784m0-46.784h46.784m-46.784 46.784v46.785m0-46.785h46.784m-46.784 46.785v46.784m0-46.784h46.784m-46.784 46.784v46.784m0-46.784h46.784m-46.784 46.784v46.785m0-46.785h46.784m-46.784 46.785v46.784m0-46.784h46.784m-46.784 46.784v46.784m0-46.784h46.784m-46.784 46.784v46.784m0-46.784h46.784m-46.784 46.784v46.785m0-46.785h46.784m-46.784 46.785v46.784m0-46.784h46.784m-46.784 46.784v46.784m0-46.784h46.784m-46.784 46.784v46.785m0-46.785h46.784m-46.784 46.785v46.784m0-46.784h46.784m-46.784 46.784v46.784m0-46.784h46.784m-46.784 46.784v46.784m0-46.784h46.784m-46.784 46.784v46.785m0-46.785h46.784m-46.784 46.785h46.784m0-935.686v46.784m0-46.784h46.784m-46.784 46.784V93.57m0-46.785h46.784M486.368 93.57v46.784m0-46.784h46.784m-46.784 46.784v46.784m0-46.784h46.784m-46.784 46.784v46.784m0-46.784h46.784m-46.784 46.784v46.785m0-46.785h46.784m-46.784 46.785v46.784m0-46.784h46.784m-46.784 46.784v46.784m0-46.784h46.784m-46.784 46.784v46.785m0-46.785h46.784m-46.784 46.785v46.784m0-46.784h46.784m-46.784 46.784v46.784m0-46.784h46.784m-46.784 46.784v46.784m0-46.784h46.784m-46.784 46.784v46.785m0-46.785h46.784m-46.784 46.785v46.784m0-46.784h46.784m-46.784 46.784v46.784m0-46.784h46.784m-46.784 46.784v46.785m0-46.785h46.784m-46.784 46.785v46.784m0-46.784h46.784m-46.784 46.784v46.784m0-46.784h46.784m-46.784 46.784v46.784m0-46.784h46.784m-46.784 46.784v46.785m0-46.785h46.784m-46.784 46.785h46.784m0-935.686v46.784m0-46.784h46.785m-46.785 46.784V93.57m0-46.785h46.785M533.152 93.57v46.784m0-46.784h46.785m-46.785 46.784v46.784m0-46.784h46.785m-46.785 46.784v46.784m0-46.784h46.785m-46.785 46.784v46.785m0-46.785h46.785m-46.785 46.785v46.784m0-46.784h46.785m-46.785 46.784v46.784m0-46.784h46.785m-46.785 46.784v46.785m0-46.785h46.785m-46.785 46.785v46.784m0-46.784h46.785m-46.785 46.784v46.784m0-46.784h46.785m-46.785 46.784v46.784m0-46.784h46.785m-46.785 46.784v46.785m0-46.785h46.785m-46.785 46.785v46.784m0-46.784h46.785m-46.785 46.784v46.784m0-46.784h46.785m-46.785 46.784v46.785m0-46.785h46.785m-46.785 46.785v46.784m0-46.784h46.785m-46.785 46.784v46.784m0-46.784h46.785m-46.785 46.784v46.784m0-46.784h46.785m-46.785 46.784v46.785m0-46.785h46.785m-46.785 46.785h46.785m0-935.686v46.784m0-46.784h46.784m-46.784 46.784V93.57m0-46.785h46.784M579.937 93.57v46.784m0-46.784h46.784m-46.784 46.784v46.784m0-46.784h46.784m-46.784 46.784v46.784m0-46.784h46.784m-46.784 46.784v46.785m0-46.785h46.784m-46.784 46.785v46.784m0-46.784h46.784m-46.784 46.784v46.784m0-46.784h46.784m-46.784 46.784v46.785m0-46.785h46.784m-46.784 46.785v46.784m0-46.784h46.784m-46.784 46.784v46.784m0-46.784h46.784m-46.784 46.784v46.784m0-46.784h46.784m-46.784 46.784v46.785m0-46.785h46.784m-46.784 46.785v46.784m0-46.784h46.784m-46.784 46.784v46.784m0-46.784h46.784m-46.784 46.784v46.785m0-46.785h46.784m-46.784 46.785v46.784m0-46.784h46.784m-46.784 46.784v46.784m0-46.784h46.784m-46.784 46.784v46.784m0-46.784h46.784m-46.784 46.784v46.785m0-46.785h46.784m-46.784 46.785h46.784m0-935.686v46.784m0-46.784h46.784m-46.784 46.784V93.57m0-46.785h46.784M626.721 93.57v46.784m0-46.784h46.784m-46.784 46.784v46.784m0-46.784h46.784m-46.784 46.784v46.784m0-46.784h46.784m-46.784 46.784v46.785m0-46.785h46.784m-46.784 46.785v46.784m0-46.784h46.784m-46.784 46.784v46.784m0-46.784h46.784m-46.784 46.784v46.785m0-46.785h46.784m-46.784 46.785v46.784m0-46.784h46.784m-46.784 46.784v46.784m0-46.784h46.784m-46.784 46.784v46.784m0-46.784h46.784m-46.784 46.784v46.785m0-46.785h46.784m-46.784 46.785v46.784m0-46.784h46.784m-46.784 46.784v46.784m0-46.784h46.784m-46.784 46.784v46.785m0-46.785h46.784m-46.784 46.785v46.784m0-46.784h46.784m-46.784 46.784v46.784m0-46.784h46.784m-46.784 46.784v46.784m0-46.784h46.784m-46.784 46.784v46.785m0-46.785h46.784m-46.784 46.785h46.784m0-935.686v46.784m0-46.784h46.785m-46.785 46.784V93.57m0-46.785h46.785M673.505 93.57v46.784m0-46.784h46.785m-46.785 46.784v46.784m0-46.784h46.785m-46.785 46.784v46.784m0-46.784h46.785m-46.785 46.784v46.785m0-46.785h46.785m-46.785 46.785v46.784m0-46.784h46.785m-46.785 46.784v46.784m0-46.784h46.785m-46.785 46.784v46.785m0-46.785h46.785m-46.785 46.785v46.784m0-46.784h46.785m-46.785 46.784v46.784m0-46.784h46.785m-46.785 46.784v46.784m0-46.784h46.785m-46.785 46.784v46.785m0-46.785h46.785m-46.785 46.785v46.784m0-46.784h46.785m-46.785 46.784v46.784m0-46.784h46.785m-46.785 46.784v46.785m0-46.785h46.785m-46.785 46.785v46.784m0-46.784h46.785m-46.785 46.784v46.784m0-46.784h46.785m-46.785 46.784v46.784m0-46.784h46.785m-46.785 46.784v46.785m0-46.785h46.785m-46.785 46.785h46.785M720.29 0v46.784m0-46.784h46.784M720.29 46.784V93.57m0-46.785h46.784M720.29 93.57v46.784m0-46.784h46.784m-46.784 46.784v46.784m0-46.784h46.784m-46.784 46.784v46.784m0-46.784h46.784m-46.784 46.784v46.785m0-46.785h46.784m-46.784 46.785v46.784m0-46.784h46.784M720.29 327.49v46.784m0-46.784h46.784m-46.784 46.784v46.785m0-46.785h46.784m-46.784 46.785v46.784m0-46.784h46.784m-46.784 46.784v46.784m0-46.784h46.784m-46.784 46.784v46.784m0-46.784h46.784m-46.784 46.784v46.785m0-46.785h46.784m-46.784 46.785v46.784m0-46.784h46.784M720.29 654.98v46.784m0-46.784h46.784m-46.784 46.784v46.785m0-46.785h46.784m-46.784 46.785v46.784m0-46.784h46.784m-46.784 46.784v46.784m0-46.784h46.784m-46.784 46.784v46.784m0-46.784h46.784m-46.784 46.784v46.785m0-46.785h46.784m-46.784 46.785h46.784m0-935.686v46.784m0-46.784h46.784m-46.784 46.784V93.57m0-46.785h46.784M767.074 93.57v46.784m0-46.784h46.784m-46.784 46.784v46.784m0-46.784h46.784m-46.784 46.784v46.784m0-46.784h46.784m-46.784 46.784v46.785m0-46.785h46.784m-46.784 46.785v46.784m0-46.784h46.784m-46.784 46.784v46.784m0-46.784h46.784m-46.784 46.784v46.785m0-46.785h46.784m-46.784 46.785v46.784m0-46.784h46.784m-46.784 46.784v46.784m0-46.784h46.784m-46.784 46.784v46.784m0-46.784h46.784m-46.784 46.784v46.785m0-46.785h46.784m-46.784 46.785v46.784m0-46.784h46.784m-46.784 46.784v46.784m0-46.784h46.784m-46.784 46.784v46.785m0-46.785h46.784m-46.784 46.785v46.784m0-46.784h46.784m-46.784 46.784v46.784m0-46.784h46.784m-46.784 46.784v46.784m0-46.784h46.784m-46.784 46.784v46.785m0-46.785h46.784m-46.784 46.785h46.784m0-935.686v46.784m0-46.784h46.784m-46.784 46.784V93.57m0-46.785h46.784M813.858 93.57v46.784m0-46.784h46.784m-46.784 46.784v46.784m0-46.784h46.784m-46.784 46.784v46.784m0-46.784h46.784m-46.784 46.784v46.785m0-46.785h46.784m-46.784 46.785v46.784m0-46.784h46.784m-46.784 46.784v46.784m0-46.784h46.784m-46.784 46.784v46.785m0-46.785h46.784m-46.784 46.785v46.784m0-46.784h46.784m-46.784 46.784v46.784m0-46.784h46.784m-46.784 46.784v46.784m0-46.784h46.784m-46.784 46.784v46.785m0-46.785h46.784m-46.784 46.785v46.784m0-46.784h46.784m-46.784 46.784v46.784m0-46.784h46.784m-46.784 46.784v46.785m0-46.785h46.784m-46.784 46.785v46.784m0-46.784h46.784m-46.784 46.784v46.784m0-46.784h46.784m-46.784 46.784v46.784m0-46.784h46.784m-46.784 46.784v46.785m0-46.785h46.784m-46.784 46.785h46.784m0-935.686v46.784m0-46.784h46.785m-46.785 46.784V93.57m0-46.785h46.785M860.642 93.57v46.784m0-46.784h46.785m-46.785 46.784v46.784m0-46.784h46.785m-46.785 46.784v46.784m0-46.784h46.785m-46.785 46.784v46.785m0-46.785h46.785m-46.785 46.785v46.784m0-46.784h46.785m-46.785 46.784v46.784m0-46.784h46.785m-46.785 46.784v46.785m0-46.785h46.785m-46.785 46.785v46.784m0-46.784h46.785m-46.785 46.784v46.784m0-46.784h46.785m-46.785 46.784v46.784m0-46.784h46.785m-46.785 46.784v46.785m0-46.785h46.785m-46.785 46.785v46.784m0-46.784h46.785m-46.785 46.784v46.784m0-46.784h46.785m-46.785 46.784v46.785m0-46.785h46.785m-46.785 46.785v46.784m0-46.784h46.785m-46.785 46.784v46.784m0-46.784h46.785m-46.785 46.784v46.784m0-46.784h46.785m-46.785 46.784v46.785m0-46.785h46.785m-46.785 46.785h46.785m0-935.686v46.784m0-46.784h46.784m-46.784 46.784V93.57m0-46.785h46.784M907.427 93.57v46.784m0-46.784h46.784m-46.784 46.784v46.784m0-46.784h46.784m-46.784 46.784v46.784m0-46.784h46.784m-46.784 46.784v46.785m0-46.785h46.784m-46.784 46.785v46.784m0-46.784h46.784m-46.784 46.784v46.784m0-46.784h46.784m-46.784 46.784v46.785m0-46.785h46.784m-46.784 46.785v46.784m0-46.784h46.784m-46.784 46.784v46.784m0-46.784h46.784m-46.784 46.784v46.784m0-46.784h46.784m-46.784 46.784v46.785m0-46.785h46.784m-46.784 46.785v46.784m0-46.784h46.784m-46.784 46.784v46.784m0-46.784h46.784m-46.784 46.784v46.785m0-46.785h46.784m-46.784 46.785v46.784m0-46.784h46.784m-46.784 46.784v46.784m0-46.784h46.784m-46.784 46.784v46.784m0-46.784h46.784m-46.784 46.784v46.785m0-46.785h46.784m-46.784 46.785h46.784m0-935.686v46.784m0-46.784H1001m-46.789 46.784V93.57m0-46.785H1001M954.211 93.57v46.784m0-46.784H1001m-46.789 46.784v46.784m0-46.784H1001m-46.789 46.784v46.784m0-46.784H1001m-46.789 46.784v46.785m0-46.785H1001m-46.789 46.785v46.784m0-46.784H1001m-46.789 46.784v46.784m0-46.784H1001m-46.789 46.784v46.785m0-46.785H1001m-46.789 46.785v46.784m0-46.784H1001m-46.789 46.784v46.784m0-46.784H1001m-46.789 46.784v46.784m0-46.784H1001m-46.789 46.784v46.785m0-46.785H1001m-46.789 46.785v46.784m0-46.784H1001m-46.789 46.784v46.784m0-46.784H1001m-46.789 46.784v46.785m0-46.785H1001m-46.789 46.785v46.784m0-46.784H1001m-46.789 46.784v46.784m0-46.784H1001m-46.789 46.784v46.784m0-46.784H1001m-46.789 46.784v46.785m0-46.785H1001m-46.789 46.785H1001M1001 0v46.784M1001 0h46.78M1001 46.784V93.57m0-46.785h46.78M1001 93.57v46.784m0-46.784h46.78M1001 140.353v46.784m0-46.784h46.78M1001 187.137v46.784m0-46.784h46.78M1001 233.921v46.785m0-46.785h46.78M1001 280.706v46.784m0-46.784h46.78M1001 327.49v46.784m0-46.784h46.78M1001 374.274v46.785m0-46.785h46.78M1001 421.059v46.784m0-46.784h46.78M1001 467.843v46.784m0-46.784h46.78M1001 514.627v46.784m0-46.784h46.78M1001 561.411v46.785m0-46.785h46.78M1001 608.196v46.784m0-46.784h46.78M1001 654.98v46.784m0-46.784h46.78M1001 701.764v46.785m0-46.785h46.78M1001 748.549v46.784m0-46.784h46.78M1001 795.333v46.784m0-46.784h46.78M1001 842.117v46.784m0-46.784h46.78M1001 888.901v46.785m0-46.785h46.78M1001 935.686h46.78m0-935.686v46.784m0-46.784h46.78m-46.78 46.784V93.57m0-46.785h46.78m-46.78 46.785v46.784m0-46.784h46.78m-46.78 46.784v46.784m0-46.784h46.78m-46.78 46.784v46.784m0-46.784h46.78m-46.78 46.784v46.785m0-46.785h46.78m-46.78 46.785v46.784m0-46.784h46.78m-46.78 46.784v46.784m0-46.784h46.78m-46.78 46.784v46.785m0-46.785h46.78m-46.78 46.785v46.784m0-46.784h46.78m-46.78 46.784v46.784m0-46.784h46.78m-46.78 46.784v46.784m0-46.784h46.78m-46.78 46.784v46.785m0-46.785h46.78m-46.78 46.785v46.784m0-46.784h46.78m-46.78 46.784v46.784m0-46.784h46.78m-46.78 46.784v46.785m0-46.785h46.78m-46.78 46.785v46.784m0-46.784h46.78m-46.78 46.784v46.784m0-46.784h46.78m-46.78 46.784v46.784m0-46.784h46.78m-46.78 46.784v46.785m0-46.785h46.78m-46.78 46.785h46.78m0-935.686v46.784m0-46.784h46.79m-46.79 46.784V93.57m0-46.785h46.79m-46.79 46.785v46.784m0-46.784h46.79m-46.79 46.784v46.784m0-46.784h46.79m-46.79 46.784v46.784m0-46.784h46.79m-46.79 46.784v46.785m0-46.785h46.79m-46.79 46.785v46.784m0-46.784h46.79m-46.79 46.784v46.784m0-46.784h46.79m-46.79 46.784v46.785m0-46.785h46.79m-46.79 46.785v46.784m0-46.784h46.79m-46.79 46.784v46.784m0-46.784h46.79m-46.79 46.784v46.784m0-46.784h46.79m-46.79 46.784v46.785m0-46.785h46.79m-46.79 46.785v46.784m0-46.784h46.79m-46.79 46.784v46.784m0-46.784h46.79m-46.79 46.784v46.785m0-46.785h46.79m-46.79 46.785v46.784m0-46.784h46.79m-46.79 46.784v46.784m0-46.784h46.79m-46.79 46.784v46.784m0-46.784h46.79m-46.79 46.784v46.785m0-46.785h46.79m-46.79 46.785h46.79m0-935.686v46.784m0-46.784h46.78m-46.78 46.784V93.57m0-46.785h46.78m-46.78 46.785v46.784m0-46.784h46.78m-46.78 46.784v46.784m0-46.784h46.78m-46.78 46.784v46.784m0-46.784h46.78m-46.78 46.784v46.785m0-46.785h46.78m-46.78 46.785v46.784m0-46.784h46.78m-46.78 46.784v46.784m0-46.784h46.78m-46.78 46.784v46.785m0-46.785h46.78m-46.78 46.785v46.784m0-46.784h46.78m-46.78 46.784v46.784m0-46.784h46.78m-46.78 46.784v46.784m0-46.784h46.78m-46.78 46.784v46.785m0-46.785h46.78m-46.78 46.785v46.784m0-46.784h46.78m-46.78 46.784v46.784m0-46.784h46.78m-46.78 46.784v46.785m0-46.785h46.78m-46.78 46.785v46.784m0-46.784h46.78m-46.78 46.784v46.784m0-46.784h46.78m-46.78 46.784v46.784m0-46.784h46.78m-46.78 46.784v46.785m0-46.785h46.78m-46.78 46.785h46.78m0-935.686v46.784m0-46.784h46.79m-46.79 46.784V93.57m0-46.785h46.79m-46.79 46.785v46.784m0-46.784h46.79m-46.79 46.784v46.784m0-46.784h46.79m-46.79 46.784v46.784m0-46.784h46.79m-46.79 46.784v46.785m0-46.785h46.79m-46.79 46.785v46.784m0-46.784h46.79m-46.79 46.784v46.784m0-46.784h46.79m-46.79 46.784v46.785m0-46.785h46.79m-46.79 46.785v46.784m0-46.784h46.79m-46.79 46.784v46.784m0-46.784h46.79m-46.79 46.784v46.784m0-46.784h46.79m-46.79 46.784v46.785m0-46.785h46.79m-46.79 46.785v46.784m0-46.784h46.79m-46.79 46.784v46.784m0-46.784h46.79m-46.79 46.784v46.785m0-46.785h46.79m-46.79 46.785v46.784m0-46.784h46.79m-46.79 46.784v46.784m0-46.784h46.79m-46.79 46.784v46.784m0-46.784h46.79m-46.79 46.784v46.785m0-46.785h46.79m-46.79 46.785h46.79m0-935.686v46.784m0-46.784h46.78m-46.78 46.784V93.57m0-46.785h46.78m-46.78 46.785v46.784m0-46.784h46.78m-46.78 46.784v46.784m0-46.784h46.78m-46.78 46.784v46.784m0-46.784h46.78m-46.78 46.784v46.785m0-46.785h46.78m-46.78 46.785v46.784m0-46.784h46.78m-46.78 46.784v46.784m0-46.784h46.78m-46.78 46.784v46.785m0-46.785h46.78m-46.78 46.785v46.784m0-46.784h46.78m-46.78 46.784v46.784m0-46.784h46.78m-46.78 46.784v46.784m0-46.784h46.78m-46.78 46.784v46.785m0-46.785h46.78m-46.78 46.785v46.784m0-46.784h46.78m-46.78 46.784v46.784m0-46.784h46.78m-46.78 46.784v46.785m0-46.785h46.78m-46.78 46.785v46.784m0-46.784h46.78m-46.78 46.784v46.784m0-46.784h46.78m-46.78 46.784v46.784m0-46.784h46.78m-46.78 46.784v46.785m0-46.785h46.78m-46.78 46.785h46.78M1281.7 0v46.784m0-46.784h46.79m-46.79 46.784V93.57m0-46.785h46.79M1281.7 93.57v46.784m0-46.784h46.79m-46.79 46.784v46.784m0-46.784h46.79m-46.79 46.784v46.784m0-46.784h46.79m-46.79 46.784v46.785m0-46.785h46.79m-46.79 46.785v46.784m0-46.784h46.79m-46.79 46.784v46.784m0-46.784h46.79m-46.79 46.784v46.785m0-46.785h46.79m-46.79 46.785v46.784m0-46.784h46.79m-46.79 46.784v46.784m0-46.784h46.79m-46.79 46.784v46.784m0-46.784h46.79m-46.79 46.784v46.785m0-46.785h46.79m-46.79 46.785v46.784m0-46.784h46.79m-46.79 46.784v46.784m0-46.784h46.79m-46.79 46.784v46.785m0-46.785h46.79m-46.79 46.785v46.784m0-46.784h46.79m-46.79 46.784v46.784m0-46.784h46.79m-46.79 46.784v46.784m0-46.784h46.79m-46.79 46.784v46.785m0-46.785h46.79m-46.79 46.785h46.79m0-935.686v46.784m0-46.784h46.78m-46.78 46.784V93.57m0-46.785h46.78m-46.78 46.785v46.784m0-46.784h46.78m-46.78 46.784v46.784m0-46.784h46.78m-46.78 46.784v46.784m0-46.784h46.78m-46.78 46.784v46.785m0-46.785h46.78m-46.78 46.785v46.784m0-46.784h46.78m-46.78 46.784v46.784m0-46.784h46.78m-46.78 46.784v46.785m0-46.785h46.78m-46.78 46.785v46.784m0-46.784h46.78m-46.78 46.784v46.784m0-46.784h46.78m-46.78 46.784v46.784m0-46.784h46.78m-46.78 46.784v46.785m0-46.785h46.78m-46.78 46.785v46.784m0-46.784h46.78m-46.78 46.784v46.784m0-46.784h46.78m-46.78 46.784v46.785m0-46.785h46.78m-46.78 46.785v46.784m0-46.784h46.78m-46.78 46.784v46.784m0-46.784h46.78m-46.78 46.784v46.784m0-46.784h46.78m-46.78 46.784v46.785m0-46.785h46.78m-46.78 46.785h46.78m0-935.686v46.784m0-46.784h46.78m-46.78 46.784V93.57m0-46.785h46.78m-46.78 46.785v46.784m0-46.784h46.78m-46.78 46.784v46.784m0-46.784h46.78m-46.78 46.784v46.784m0-46.784h46.78m-46.78 46.784v46.785m0-46.785h46.78m-46.78 46.785v46.784m0-46.784h46.78m-46.78 46.784v46.784m0-46.784h46.78m-46.78 46.784v46.785m0-46.785h46.78m-46.78 46.785v46.784m0-46.784h46.78m-46.78 46.784v46.784m0-46.784h46.78m-46.78 46.784v46.784m0-46.784h46.78m-46.78 46.784v46.785m0-46.785h46.78m-46.78 46.785v46.784m0-46.784h46.78m-46.78 46.784v46.784m0-46.784h46.78m-46.78 46.784v46.785m0-46.785h46.78m-46.78 46.785v46.784m0-46.784h46.78m-46.78 46.784v46.784m0-46.784h46.78m-46.78 46.784v46.784m0-46.784h46.78m-46.78 46.784v46.785m0-46.785h46.78m-46.78 46.785h46.78m0-935.686v46.784m0-46.784h46.79m-46.79 46.784V93.57m0-46.785h46.79m-46.79 46.785v46.784m0-46.784h46.79m-46.79 46.784v46.784m0-46.784h46.79m-46.79 46.784v46.784m0-46.784h46.79m-46.79 46.784v46.785m0-46.785h46.79m-46.79 46.785v46.784m0-46.784h46.79m-46.79 46.784v46.784m0-46.784h46.79m-46.79 46.784v46.785m0-46.785h46.79m-46.79 46.785v46.784m0-46.784h46.79m-46.79 46.784v46.784m0-46.784h46.79m-46.79 46.784v46.784m0-46.784h46.79m-46.79 46.784v46.785m0-46.785h46.79m-46.79 46.785v46.784m0-46.784h46.79m-46.79 46.784v46.784m0-46.784h46.79m-46.79 46.784v46.785m0-46.785h46.79m-46.79 46.785v46.784m0-46.784h46.79m-46.79 46.784v46.784m0-46.784h46.79m-46.79 46.784v46.784m0-46.784h46.79m-46.79 46.784v46.785m0-46.785h46.79m-46.79 46.785h46.79m0-935.686v46.784m0-46.784h46.78m-46.78 46.784V93.57m0-46.785h46.78m-46.78 46.785v46.784m0-46.784h46.78m-46.78 46.784v46.784m0-46.784h46.78m-46.78 46.784v46.784m0-46.784h46.78m-46.78 46.784v46.785m0-46.785h46.78m-46.78 46.785v46.784m0-46.784h46.78m-46.78 46.784v46.784m0-46.784h46.78m-46.78 46.784v46.785m0-46.785h46.78m-46.78 46.785v46.784m0-46.784h46.78m-46.78 46.784v46.784m0-46.784h46.78m-46.78 46.784v46.784m0-46.784h46.78m-46.78 46.784v46.785m0-46.785h46.78m-46.78 46.785v46.784m0-46.784h46.78m-46.78 46.784v46.784m0-46.784h46.78m-46.78 46.784v46.785m0-46.785h46.78m-46.78 46.785v46.784m0-46.784h46.78m-46.78 46.784v46.784m0-46.784h46.78m-46.78 46.784v46.784m0-46.784h46.78m-46.78 46.784v46.785m0-46.785h46.78m-46.78 46.785h46.78m0-935.686v46.784m0-46.784h46.79m-46.79 46.784V93.57m0-46.785h46.79m-46.79 46.785v46.784m0-46.784h46.79m-46.79 46.784v46.784m0-46.784h46.79m-46.79 46.784v46.784m0-46.784h46.79m-46.79 46.784v46.785m0-46.785h46.79m-46.79 46.785v46.784m0-46.784h46.79m-46.79 46.784v46.784m0-46.784h46.79m-46.79 46.784v46.785m0-46.785h46.79m-46.79 46.785v46.784m0-46.784h46.79m-46.79 46.784v46.784m0-46.784h46.79m-46.79 46.784v46.784m0-46.784h46.79m-46.79 46.784v46.785m0-46.785h46.79m-46.79 46.785v46.784m0-46.784h46.79m-46.79 46.784v46.784m0-46.784h46.79m-46.79 46.784v46.785m0-46.785h46.79m-46.79 46.785v46.784m0-46.784h46.79m-46.79 46.784v46.784m0-46.784h46.79m-46.79 46.784v46.784m0-46.784h46.79m-46.79 46.784v46.785m0-46.785h46.79m-46.79 46.785h46.79m0-935.686v46.784m0-46.784h46.78m-46.78 46.784V93.57m0-46.785h46.78m-46.78 46.785v46.784m0-46.784h46.78m-46.78 46.784v46.784m0-46.784h46.78m-46.78 46.784v46.784m0-46.784h46.78m-46.78 46.784v46.785m0-46.785h46.78m-46.78 46.785v46.784m0-46.784h46.78m-46.78 46.784v46.784m0-46.784h46.78m-46.78 46.784v46.785m0-46.785h46.78m-46.78 46.785v46.784m0-46.784h46.78m-46.78 46.784v46.784m0-46.784h46.78m-46.78 46.784v46.784m0-46.784h46.78m-46.78 46.784v46.785m0-46.785h46.78m-46.78 46.785v46.784m0-46.784h46.78m-46.78 46.784v46.784m0-46.784h46.78m-46.78 46.784v46.785m0-46.785h46.78m-46.78 46.785v46.784m0-46.784h46.78m-46.78 46.784v46.784m0-46.784h46.78m-46.78 46.784v46.784m0-46.784h46.78m-46.78 46.784v46.785m0-46.785h46.78m-46.78 46.785h46.78m0-935.686v46.784m0-46.784h46.79m-46.79 46.784V93.57m0-46.785h46.79m-46.79 46.785v46.784m0-46.784h46.79m-46.79 46.784v46.784m0-46.784h46.79m-46.79 46.784v46.784m0-46.784h46.79m-46.79 46.784v46.785m0-46.785h46.79m-46.79 46.785v46.784m0-46.784h46.79m-46.79 46.784v46.784m0-46.784h46.79m-46.79 46.784v46.785m0-46.785h46.79m-46.79 46.785v46.784m0-46.784h46.79m-46.79 46.784v46.784m0-46.784h46.79m-46.79 46.784v46.784m0-46.784h46.79m-46.79 46.784v46.785m0-46.785h46.79m-46.79 46.785v46.784m0-46.784h46.79m-46.79 46.784v46.784m0-46.784h46.79m-46.79 46.784v46.785m0-46.785h46.79m-46.79 46.785v46.784m0-46.784h46.79m-46.79 46.784v46.784m0-46.784h46.79m-46.79 46.784v46.784m0-46.784h46.79m-46.79 46.784v46.785m0-46.785h46.79m-46.79 46.785h46.79m0-935.686v46.784m0-46.784h46.78m-46.78 46.784V93.57m0-46.785h46.78m-46.78 46.785v46.784m0-46.784h46.78m-46.78 46.784v46.784m0-46.784h46.78m-46.78 46.784v46.784m0-46.784h46.78m-46.78 46.784v46.785m0-46.785h46.78m-46.78 46.785v46.784m0-46.784h46.78m-46.78 46.784v46.784m0-46.784h46.78m-46.78 46.784v46.785m0-46.785h46.78m-46.78 46.785v46.784m0-46.784h46.78m-46.78 46.784v46.784m0-46.784h46.78m-46.78 46.784v46.784m0-46.784h46.78m-46.78 46.784v46.785m0-46.785h46.78m-46.78 46.785v46.784m0-46.784h46.78m-46.78 46.784v46.784m0-46.784h46.78m-46.78 46.784v46.785m0-46.785h46.78m-46.78 46.785v46.784m0-46.784h46.78m-46.78 46.784v46.784m0-46.784h46.78m-46.78 46.784v46.784m0-46.784h46.78m-46.78 46.784v46.785m0-46.785h46.78m-46.78 46.785h46.78m0-935.686v46.784m0-46.784h46.78v46.784m-46.78 0V93.57m0-46.785h46.78m-46.78 46.785v46.784m0-46.784h46.78m-46.78 46.784v46.784m0-46.784h46.78m-46.78 46.784v46.784m0-46.784h46.78m-46.78 46.784v46.785m0-46.785h46.78m-46.78 46.785v46.784m0-46.784h46.78m-46.78 46.784v46.784m0-46.784h46.78m-46.78 46.784v46.785m0-46.785h46.78m-46.78 46.785v46.784m0-46.784h46.78m-46.78 46.784v46.784m0-46.784h46.78m-46.78 46.784v46.784m0-46.784h46.78m-46.78 46.784v46.785m0-46.785h46.78m-46.78 46.785v46.784m0-46.784h46.78m-46.78 46.784v46.784m0-46.784h46.78m-46.78 46.784v46.785m0-46.785h46.78m-46.78 46.785v46.784m0-46.784h46.78m-46.78 46.784v46.784m0-46.784h46.78m-46.78 46.784v46.784m0-46.784h46.78m-46.78 46.784v46.785m0-46.785h46.78m-46.78 46.785h46.78v-46.785m0-842.117V93.57m0 0v46.784m0 0v46.784m0 0v46.784m0 0v46.785m0 0v46.784m0 0v46.784m0 0v46.785m0 0v46.784m0 0v46.784m0 0v46.784m0 0v46.785m0 0v46.784m0 0v46.784m0 0v46.785m0 0v46.784m0 0v46.784m0 0v46.784" opacity=".06"/><path stroke="#000" stroke-width="1.17" d="M-121.828 173.102v14.035m0 0v14.035m0-14.035h-14.035m14.035 0h14.036m-14.036 360.239v14.035m0 0v14.035m0-14.035h-14.035m14.035 0h14.036m-14.036 360.239v14.035m0 0v14.036m0-14.036h-14.035m14.035 0h14.036m360.239-762.583v14.035m0 0v14.035m0-14.035h-14.035m14.035 0h14.035m-14.035 360.239v14.035m0 0v14.035m0-14.035h-14.035m14.035 0h14.035M252.447 921.65v14.035m0 0v14.036m0-14.036h-14.035m14.035 0h14.035m360.239-762.583v14.035m0 0v14.035m0-14.035h-14.035m14.035 0h14.035m-14.035 360.239v14.035m0 0v14.035m0-14.035h-14.035m14.035 0h14.035M626.721 921.65v14.035m0 0v14.036m0-14.036h-14.035m14.035 0h14.035M1001 173.102v14.035m0 0v14.035m0-14.035h-14.04m14.04 0h14.03M1001 547.376v14.035m0 0v14.035m0-14.035h-14.04m14.04 0h14.03M1001 921.65v14.035m0 0v14.036m0-14.036h-14.04m14.04 0h14.03m360.24-762.583v14.035m0 0v14.035m0-14.035h-14.04m14.04 0h14.04m-14.04 360.239v14.035m0 0v14.035m0-14.035h-14.04m14.04 0h14.04m-14.04 360.239v14.035m0 0v14.036m0-14.036h-14.04m14.04 0h14.04m360.23-762.583v14.035m0 0v14.035m0-14.035h-14.03m14.03 0h14.04m-14.04 360.239v14.035m0 0v14.035m0-14.035h-14.03m14.03 0h14.04m-14.04 360.239v14.035m0 0v14.036m0-14.036h-14.03m14.03 0h14.04M-121.828 360.239v14.035m0 0v14.035m0-14.035h-14.035m14.035 0h14.036m-14.036 360.239v14.035m0 0v14.036m0-14.036h-14.035m14.035 0h14.036m360.239-388.309v14.035m0 0v14.035m0-14.035h-14.035m14.035 0h14.035m-14.035 360.239v14.035m0 0v14.036m0-14.036h-14.035m14.035 0h14.035m360.239-388.309v14.035m0 0v14.035m0-14.035h-14.035m14.035 0h14.035m-14.035 360.239v14.035m0 0v14.036m0-14.036h-14.035m14.035 0h14.035M1001 360.239v14.035m0 0v14.035m0-14.035h-14.04m14.04 0h14.03M1001 734.513v14.035m0 0v14.036m0-14.036h-14.04m14.04 0h14.03m360.24-388.309v14.035m0 0v14.035m0-14.035h-14.04m14.04 0h14.04m-14.04 360.239v14.035m0 0v14.036m0-14.036h-14.04m14.04 0h14.04m360.23-388.309v14.035m0 0v14.035m0-14.035h-14.03m14.03 0h14.04m-14.04 360.239v14.035m0 0v14.036m0-14.036h-14.03m14.03 0h14.04M-308.965 173.102v14.035m0 0v14.035m0-14.035H-323m14.035 0h14.036m-14.036 360.239v14.035m0 0v14.035m0-14.035H-323m14.035 0h14.036m-14.036 360.239v14.035m0 0v14.036m0-14.036H-323m14.035 0h14.036M65.31 173.102v14.035m0 0v14.035m0-14.035H51.274m14.036 0h14.035M65.31 547.376v14.035m0 0v14.035m0-14.035H51.274m14.036 0h14.035M65.31 921.65v14.035m0 0v14.036m0-14.036H51.274m14.036 0h14.035m360.239-762.583v14.035m0 0v14.035m0-14.035h-14.035m14.035 0h14.035m-14.035 360.239v14.035m0 0v14.035m0-14.035h-14.035m14.035 0h14.035M439.584 921.65v14.035m0 0v14.036m0-14.036h-14.035m14.035 0h14.035m360.239-762.583v14.035m0 0v14.035m0-14.035h-14.035m14.035 0h14.036m-14.036 360.239v14.035m0 0v14.035m0-14.035h-14.035m14.035 0h14.036M813.858 921.65v14.035m0 0v14.036m0-14.036h-14.035m14.035 0h14.036m360.236-762.583v14.035m0 0v14.035m0-14.035h-14.03m14.03 0h14.04m-14.04 360.239v14.035m0 0v14.035m0-14.035h-14.03m14.03 0h14.04m-14.04 360.239v14.035m0 0v14.036m0-14.036h-14.03m14.03 0h14.04m360.24-762.583v14.035m0 0v14.035m0-14.035h-14.04m14.04 0h14.03m-14.03 360.239v14.035m0 0v14.035m0-14.035h-14.04m14.04 0h14.03m-14.03 360.239v14.035m0 0v14.036m0-14.036h-14.04m14.04 0h14.03M-308.965 360.239v14.035m0 0v14.035m0-14.035H-323m14.035 0h14.036m-14.036 360.239v14.035m0 0v14.036m0-14.036H-323m14.035 0h14.036M65.31 360.239v14.035m0 0v14.035m0-14.035H51.274m14.036 0h14.035M65.31 734.513v14.035m0 0v14.036m0-14.036H51.274m14.036 0h14.035m360.239-388.309v14.035m0 0v14.035m0-14.035h-14.035m14.035 0h14.035m-14.035 360.239v14.035m0 0v14.036m0-14.036h-14.035m14.035 0h14.035m360.239-388.309v14.035m0 0v14.035m0-14.035h-14.035m14.035 0h14.036m-14.036 360.239v14.035m0 0v14.036m0-14.036h-14.035m14.035 0h14.036m360.236-388.309v14.035m0 0v14.035m0-14.035h-14.03m14.03 0h14.04m-14.04 360.239v14.035m0 0v14.036m0-14.036h-14.03m14.03 0h14.04m360.24-388.309v14.035m0 0v14.035m0-14.035h-14.04m14.04 0h14.03m-14.03 360.239v14.035m0 0v14.036m0-14.036h-14.04m14.04 0h14.03" opacity=".06"/><defs><linearGradient id="a" x1="1329" x2="53.5" y1="50" y2="713.5" gradientUnits="userSpaceOnUse"><stop offset=".359"/><stop offset="1" stop-opacity="0"/></linearGradient></defs></svg>